<?xml version="1.0" standalone="no"?>
<!DOCTYPE svg PUBLIC "-//W3C//DTD SVG 1.1//EN" "http://www.w3.org/Graphics/SVG/1.1/DTD/svg11.dtd" >
<!--
2013-9-30: Created.
-->
<svg>
<metadata>
Created by iconfont
</metadata>
<defs>

<font id="iconfont" horiz-adv-x="1024" >
  <font-face
    font-family="iconfont"
    font-weight="500"
    font-stretch="normal"
    units-per-em="1024"
    ascent="896"
    descent="-128"
  />
    <missing-glyph />
    
    <glyph glyph-name="x" unicode="x" horiz-adv-x="1001"
d="M281 543q-27 -1 -53 -1h-83q-18 0 -36.5 -6t-32.5 -18.5t-23 -32t-9 -45.5v-76h912v41q0 16 -0.5 30t-0.5 18q0 13 -5 29t-17 29.5t-31.5 22.5t-49.5 9h-133v-97h-438v97zM955 310v-52q0 -23 0.5 -52t0.5 -58t-10.5 -47.5t-26 -30t-33 -16t-31.5 -4.5q-14 -1 -29.5 -0.5
t-29.5 0.5h-32l-45 128h-439l-44 -128h-29h-34q-20 0 -45 1q-25 0 -41 9.5t-25.5 23t-13.5 29.5t-4 30v167h911zM163 247q-12 0 -21 -8.5t-9 -21.5t9 -21.5t21 -8.5q13 0 22 8.5t9 21.5t-9 21.5t-22 8.5zM316 123q-8 -26 -14 -48q-5 -19 -10.5 -37t-7.5 -25t-3 -15t1 -14.5
t9.5 -10.5t21.5 -4h37h67h81h80h64h36q23 0 34 12t2 38q-5 13 -9.5 30.5t-9.5 34.5q-5 19 -11 39h-368zM336 498v228q0 11 2.5 23t10 21.5t20.5 15.5t34 6h188q31 0 51.5 -14.5t20.5 -52.5v-227h-327z" />
    

    
    <glyph glyph-name="phone" unicode="&#58880;" d="M736 812 288 812c-52.8 0-96-43.2-96-96l0-832c0-52.8 43.2-96 96-96l448 0c52.8 0 96 43.2 96 96L832 716C832 768.8 788.8 812 736 812zM384 764l256 0 0-32L384 732 384 764zM512-148c-35.346 0-64 28.654-64 64s28.654 64 64 64 64-28.654 64-64S547.346-148 512-148zM768 44 256 44 256 684l512 0L768 44z"  horiz-adv-x="1024" />

    
    <glyph glyph-name="phone1" unicode="&#58943;" d="M511.979534 636.665557l-30.779004 0c-81.358983 0-146.768715-31.871895-197.841927-82.905198-60.733223-60.733223-101.745289-148.848073-125.503389-243.465011-19.573801-77.881788-33.284057-159.773913-14.017248-220.87962 18.361183-58.32129 68.927859-98.547457 177.934528-98.547457l190.20704 0 190.220343 0c109.034299 0 159.574369 40.226167 177.934528 98.547457 19.253506 61.105706 5.54325 142.997831-14.017248 220.87962-23.757077 94.616938-64.770166 182.731788-125.503389 243.465011-51.073212 51.03228-116.496248 82.905198-197.841927 82.905198L511.979534 636.665557 511.979534 636.665557zM485.476927 776.759245l26.502607 0.292666 26.635637-0.292666 0.079818 0c8.487302-0.159636 17.482163-0.493234 26.622334-0.905626 45.809325-1.998517 102.891392-5.662977 157.988244-14.470573 54.470589-8.68787 107.461477-22.477944 146.208966-44.676525 34.790364-19.906375 64.064085-46.64946 83.930551-78.987982 18.241456-29.713742 28.820396-64.544015 28.820396-103.744829 0-21.718651-3.211135-42.797735-9.033747-62.518892l-0.039909 0c-6.116301-20.612457-15.216563-39.960107-26.622334-57.44227l0-0.039909c-5.143137-7.861038-11.978822-13.93743-19.760043-17.681708-7.78122-3.770883-16.801664-5.396917-26.169009-4.570085l-0.039909 0.079818c-9.513678 0.825808-18.054191 4.036943-24.969695 9.060353-6.942109 5.103228-12.605086 12.244882-16.269545 20.972661-30.79333 72.858378-73.964572 136.762827-130.806161 180.759877-50.832735 39.320541-112.471584 62.851467-185.783287 62.851467l-30.79333 0-30.779004 0c-73.311703 0-134.950552-23.530926-185.783287-62.851467-56.855916-43.99705-100.027158-107.901499-130.806161-180.759877-3.664459-8.727779-9.327436-15.909341-16.282848-20.972661-6.9022-5.02341-15.482623-8.261151-24.956392-9.060353l-0.039909-0.079818c-9.367345-0.825808-18.401092 0.839111-26.169009 4.570085-7.78122 3.744277-14.616906 9.819646-19.760043 17.681708l0 0.039909c-11.405771 17.482163-20.506033 36.82879-26.622334 57.44227L50.739615 471.454818c-5.822612 19.720134-9.033747 40.799218-9.033747 62.518892 0 39.200814 10.579963 74.031087 28.820396 103.744829 19.866467 32.338522 49.100278 59.040674 83.930551 78.987982 38.787398 22.198581 91.739401 35.989679 146.208966 44.676525 55.096852 8.807596 112.165616 12.472056 157.988244 14.470573L485.476927 776.759245 485.476927 776.759245zM336.77621 376.691547c0 96.80272 78.441537 175.256536 175.203324 175.256536 96.776114 0 175.216627-78.45484 175.216627-175.256536 0-96.762811-78.441537-175.216627-175.216627-175.216627C415.217746 201.47492 336.77621 279.92976 336.77621 376.691547z"  horiz-adv-x="1024" />

    
    <glyph glyph-name="password" unicode="&#59954;" d="M851.450696 790.352338l-399.545757-399.609756c-117.438165 55.551132-262.011906 35.007453-359.162388-62.143029-123.646068-123.646068-123.646068-324.218934 0-447.865002s324.218934-123.646068 447.865002 0c97.150482 97.150482 117.630162 241.660224 62.143029 359.226387l151.741629 151.741629 96.382494-96.382494c28.79955-28.79955 75.51882-28.863549 104.382369 0l43.51932 43.51932c28.79955 28.79955 28.863549 75.51882 0 104.382369l-54.463149 54.463149 0.063999 0.063999-41.983344 41.791347 99.966438 99.966438c28.79955 28.79955 28.863549 75.51882 0 104.382369l-46.463274 46.463274c-28.863549 28.863549-75.582819 28.863549-104.446368 0zM392.065874 29.212231c-41.663349-41.663349-109.182294-41.59935-150.781644 0.063999-41.663349 41.663349-41.663349 109.182294 0 150.845643s109.182294 41.59935 150.781644-0.063999 41.727348-109.118295 0-150.845643z"  horiz-adv-x="1024" />

    
    <glyph glyph-name="computer" unicode="&#58914;" d="M897.133056 785.282363 126.864898 785.282363c-35.450397 0-64.187905-28.709879-64.187905-64.186881l0-513.473561c0-35.45142 28.737508-64.193021 64.187905-64.193021l320.945663 0 0-96.283904L287.333636 47.144996c-17.704221 0-32.086789-14.387685-32.086789-32.091906l0-32.091906 513.509377 0 0 32.091906c0 17.709337-14.386662 32.091906-32.095999 32.091906L576.187393 47.144996l0 96.283904 320.940546 0c35.45142 0 64.194044 28.742625 64.194044 64.193021L961.321984 721.095481c0 35.477003-28.743648 64.186881-64.194044 64.186881l0 0L897.133056 785.282363zM479.908606 207.62192c0 17.709337 14.381545 32.086789 32.090882 32.086789 17.708314 0 32.090882-14.383592 32.090882-32.086789 0-17.742083-14.383592-32.128745-32.090882-32.128745C494.290151 175.492152 479.908606 189.879837 479.908606 207.62192L479.908606 207.62192 479.908606 207.62192zM126.864898 271.808802 126.864898 721.095481l770.268158 0 0-449.28668L126.864898 271.808802 126.864898 271.808802zM126.864898 271.808802"  horiz-adv-x="1024" />

    
    <glyph glyph-name="similarproduct" unicode="&#59126;" d="M302.327525 391.2192l-146.944 88.064c-11.776 7.168-27.136 3.328-34.048-8.448-7.168-11.776-3.328-27.136 8.448-34.304l146.944-88.064c11.776-7.168 27.136-3.328 34.048 8.704C317.943525 368.9728 314.103525 384.3328 302.327525 391.2192zM458.999525-124.8768c5.888-1.792 12.544-1.28 18.688 2.304C472.055525-125.64480000000003 465.399525-126.66880000000003 458.999525-124.8768zM302.327525 391.2192l-146.944 88.064c-11.776 7.168-27.136 3.328-34.048-8.448-7.168-11.776-3.328-27.136 8.448-34.304l146.944-88.064c11.776-7.168 27.136-3.328 34.048 8.704C317.943525 368.9728 314.103525 384.3328 302.327525 391.2192zM302.327525 391.2192l-146.944 88.064c-11.776 7.168-27.136 3.328-34.048-8.448-7.168-11.776-3.328-27.136 8.448-34.304l146.944-88.064c11.776-7.168 27.136-3.328 34.048 8.704C317.943525 368.9728 314.103525 384.3328 302.327525 391.2192zM302.327525 391.2192l-146.944 88.064c-11.776 7.168-27.136 3.328-34.048-8.448-7.168-11.776-3.328-27.136 8.448-34.304l146.944-88.064c11.776-7.168 27.136-3.328 34.048 8.704C317.943525 368.9728 314.103525 384.3328 302.327525 391.2192zM302.327525 391.2192l-146.944 88.064c-11.776 7.168-27.136 3.328-34.048-8.448-7.168-11.776-3.328-27.136 8.448-34.304l146.944-88.064c11.776-7.168 27.136-3.328 34.048 8.704C317.943525 368.9728 314.103525 384.3328 302.327525 391.2192zM302.327525 391.2192l-146.944 88.064c-11.776 7.168-27.136 3.328-34.048-8.448-7.168-11.776-3.328-27.136 8.448-34.304l146.944-88.064c11.776-7.168 27.136-3.328 34.048 8.704C317.943525 368.9728 314.103525 384.3328 302.327525 391.2192zM477.687525-122.54719999999998c-6.144-3.584-12.8-4.096-18.688-2.304C465.399525-126.66880000000003 472.055525-125.64480000000003 477.687525-122.54719999999998zM490.641125-58.111999999999966L490.641125 384.256l389.632 221.184 39.8848 24.1664c7.9872 5.1968 9.4976 11.8016 10.5472 16.5376 1.024 9.728-3.584 19.968-13.568 25.088l-440.32 220.16c-7.168 3.584-15.36 3.584-22.528 0l-440.32-220.16C-2.414875 660.48 0.145125 636.672 0.145125 634.1120000000001l0-469.76c0-8.704 4.608-16.896 12.032-21.504 0 0 430.848-260.352 438.272-263.68 15.104-7.424 24.576-5.376 31.744-1.792l143.36 82.944c12.288 7.168 16.384 22.784 9.216 35.072-6.912 12.288-22.784 16.384-34.816 9.472l-99.072-57.6 0 0.256L490.641125-58.111999999999966M440.465125 384.256l0-441.088L50.065125 178.43200000000002l0 427.52L440.465125 384.256zM465.553125 427.776L78.225125 647.424l387.328 193.536 387.328-193.536L465.553125 427.776zM812.945125-21.375999999999976l201.984 121.344c5.632 3.584 9.216 9.728 9.216 16.64l0 222.464c0 7.8336-5.888 13.312-12.288 16.384l-5.12 2.56c-0.512 0.256-1.28 0.256-1.792 0.256l1.536 0-196.352 98.048c-5.376 2.56-11.776 2.56-17.152 0l-196.096-98.048c-14.336-5.504-17.92-17.792-17.92-24.704l0-216.96c0-6.912 3.584-13.056 9.472-16.64 0 0 200.1664-120.0896 201.1904-120.3456C789.623525-20.40319999999997 801.553125-29.235199999999963 812.945125-21.375999999999976zM782.481125 27.775999999999954l-165.12 99.584 0 178.944 165.12-93.44L782.481125 27.775999999999954zM801.681125 245.88800000000003l-161.024 91.392 161.024 80.384 160.768-80.384L801.681125 245.88800000000003zM985.745125 127.36000000000001l-164.864-99.328 0 184.832 164.864 93.44L985.745125 127.36000000000001z"  horiz-adv-x="1025" />

    
    <glyph glyph-name="add" unicode="&#59239;" d="M863.328 413.44l-317.344 1.12L545.984 733.184c0 17.664-14.336 32-32 32s-32-14.336-32-32l0-318.4L159.616 415.936c-0.032 0-0.064 0-0.096 0-17.632 0-31.936-14.24-32-31.904C127.424 366.368 141.728 352 159.392 351.936l322.592-1.152 0-319.168c0-17.696 14.336-32 32-32s32 14.304 32 32l0 318.944 317.088-1.12c0.064 0 0.096 0 0.128 0 17.632 0 31.936 14.24 32 31.904C895.264 399.008 880.96 413.376 863.328 413.44z"  horiz-adv-x="1024" />

    
    <glyph glyph-name="tubiao215" unicode="&#58898;" d="M879.243 297.19c-16.324 43.266-79.32 141.552-80.064 190.942l-0.375 0c0.126 2.628 0.375 5.254 0.375 7.877 0 179.445-128.665 324.87-287.365 324.87-158.764 0-287.368-145.425-287.368-324.87 0-2.623 0.252-5.249 0.312-7.877l-0.312 0c-0.743-49.391-63.677-147.675-80.063-190.942-16.387-43.391-20.485-87.156-12.912-121.922 7.573-34.635 13.778-56.144 20.979-62.896 7.138-6.877 13.965-14.13 35.628 1.126 17.377 14.381 36.368 43.641 36.368 43.641s15.704-45.39 50.77-80.03c-27.497-13.003-67.278-41.89-70.134-60.771-2.731-18.759 41.708-90.159 146.102-91.784 104.397-1.5 139.09 43.642 142.507 47.144 9.742 10.253 18.122 16.504 18.122 16.504s8.441-6.251 18.124-16.504c3.411-3.502 38.106-48.644 142.503-47.144 104.392 1.626 148.833 73.025 146.041 91.784-2.795 18.881-42.639 47.768-70.073 60.771 35.003 34.641 50.771 80.03 50.771 80.03s18.992-29.26 36.372-43.641c21.598-15.255 28.424-8.002 35.623-1.126 7.201 6.752 13.347 28.261 20.979 62.896 7.574 34.765 3.418 78.53-12.909 121.922z"  horiz-adv-x="1025" />

    
    <glyph glyph-name="laptopphone" unicode="&#58967;" d="M588.8 179.2l-409.6 0c-42.3424 0-76.8 34.4576-76.8 76.8l0 409.6c0 42.3424 34.4576 76.8 76.8 76.8l665.6 0c42.3424 0 76.8-34.4576 76.8-76.8l0-51.2c0-14.1312-11.4688-25.6-25.6-25.6s-25.6 11.4688-25.6 25.6l0 51.2c0 14.1312-11.4688 25.6-25.6 25.6l-665.6 0c-14.1312 0-25.6-11.4688-25.6-25.6l0-409.6c0-14.1312 11.4688-25.6 25.6-25.6l409.6 0c14.1312 0 25.6-11.4688 25.6-25.6s-11.4688-25.6-25.6-25.6zM588.8-25.6l-512 0c-42.3424 0-76.8 34.4576-76.8 76.8l0 51.2c0 14.1312 11.4688 25.6 25.6 25.6l563.2 0c14.1312 0 25.6-11.4688 25.6-25.6s-11.4688-25.6-25.6-25.6l-537.6 0 0-25.6c0-14.1312 11.4688-25.6 25.6-25.6l512 0c14.1312 0 25.6-11.4688 25.6-25.6s-11.4688-25.6-25.6-25.6zM947.2-25.6l-204.8 0c-42.3424 0-76.8 34.4576-76.8 76.8l0 409.6c0 42.3424 34.4576 76.8 76.8 76.8l204.8 0c42.3424 0 76.8-34.4576 76.8-76.8l0-409.6c0-42.3424-34.4576-76.8-76.8-76.8zM742.4 486.4c-14.1312 0-25.6-11.4688-25.6-25.6l0-409.6c0-14.1312 11.4688-25.6 25.6-25.6l204.8 0c14.1312 0 25.6 11.4688 25.6 25.6l0 409.6c0 14.1312-11.4688 25.6-25.6 25.6l-204.8 0zM844.8 76.8c-6.7584 0-13.312 2.7136-18.0736 7.5264s-7.5264 11.3664-7.5264 18.0736 2.7136 13.3632 7.5264 18.0736c4.7616 4.7616 11.3664 7.5264 18.0736 7.5264s13.3632-2.7136 18.0736-7.5264c4.7616-4.7616 7.5264-11.3664 7.5264-18.0736s-2.7136-13.3632-7.5264-18.0736c-4.7616-4.7616-11.3664-7.5264-18.0736-7.5264z"  horiz-adv-x="1024" />

    
    <glyph glyph-name="store1" unicode="&#59023;" d="M921.6 409.6l0 51.2c0 3.9936-0.9216 7.8848-2.7136 11.4688l-102.4 204.8c-4.352 8.6528-13.2096 14.1312-22.8864 14.1312l-614.4 0c-9.6768 0-18.5856-5.4784-22.8864-14.1312l-102.4-204.8c-1.792-3.5328-2.7136-7.4752-2.7136-11.4688l0-51.2c0-41.7792 20.1216-78.9504 51.2-102.3488l0-332.8512-25.6 0c-14.1312 0-25.6-11.4688-25.6-25.6s11.4688-25.6 25.6-25.6l819.2 0c14.1312 0 25.6 11.4688 25.6 25.6s-11.4688 25.6-25.6 25.6l-25.6 0 0 332.8512c31.0784 23.3984 51.2 60.5184 51.2 102.3488zM588.8 332.8c-42.3424 0-76.8 34.4576-76.8 76.8l0 25.6 153.6 0 0-25.6c0-42.3424-34.4576-76.8-76.8-76.8zM102.4 409.6l0 25.6 153.6 0 0-25.6c0-42.3424-34.4576-76.8-76.8-76.8s-76.8 34.4576-76.8 76.8zM460.8 640l0-153.6-146.432 0 38.4 153.6 108.032 0zM620.032 640l38.4-153.6-146.432 0 0 153.6 108.032 0zM307.2 435.2l153.6 0 0-25.6c0-42.3424-34.4576-76.8-76.8-76.8s-76.8 34.4576-76.8 76.8l0 25.6zM716.8 435.2l153.6 0 0-25.6c0-42.3424-34.4576-76.8-76.8-76.8s-76.8 34.4576-76.8 76.8l0 25.6zM854.5792 486.4l-143.4112 0-38.4 153.6 105.0112 0 76.8-153.6zM195.0208 640l105.0112 0-38.4-153.6-143.4112 0 76.8 153.6zM153.6 284.16c8.2944-1.6896 16.8448-2.56 25.6-2.56 41.8304 0 79.0528 20.1728 102.4 51.3024 23.3472-31.1296 60.5696-51.3024 102.4-51.3024s79.0528 20.1728 102.4 51.3024c18.4832-24.576 45.568-42.3424 76.8-48.6912l0-309.76-409.6 0 0 309.76zM819.2-25.6l-204.8 0 0 309.76c31.232 6.3488 58.3168 24.1152 76.8 48.6912 23.3472-31.1296 60.5696-51.3024 102.4-51.3024 8.7552 0 17.3056 0.8704 25.6 2.56l0-309.76zM716.8 153.6c0-14.1312-11.4688-25.6-25.6-25.6s-25.6 11.4688-25.6 25.6c0 14.1312 11.4688 25.6 25.6 25.6s25.6-11.4688 25.6-25.6zM230.4 128c-6.5536 0-13.1072 2.5088-18.1248 7.4752-9.984 9.984-9.984 26.2144 0 36.1984l51.2 51.2c9.984 9.984 26.2144 9.984 36.1984 0s9.984-26.2144 0-36.1984l-51.2-51.2c-5.0176-5.0176-11.5712-7.4752-18.1248-7.4752zM281.6 25.6c-6.5536 0-13.1072 2.5088-18.1248 7.4752-9.984 9.984-9.984 26.2144 0 36.1984l153.6 153.6c9.984 9.984 26.2144 9.984 36.1984 0s9.984-26.2144 0-36.1984l-153.6-153.6c-5.0176-5.0176-11.5712-7.4752-18.1248-7.4752zM435.2 25.6c-6.5536 0-13.1072 2.5088-18.1248 7.4752-9.984 9.984-9.984 26.2144 0 36.1984l51.2 51.2c9.984 9.984 26.2144 9.984 36.1984 0s9.984-26.2144 0-36.1984l-51.2-51.2c-5.0176-5.0176-11.5712-7.4752-18.1248-7.4752z"  horiz-adv-x="1024" />

    
    <glyph glyph-name="icon6" unicode="&#58896;" d="M929.032258 803.096774C929.032258 836.175484 902.24 862.967742 869.16129 862.967742L150.709677 862.967742C117.660903 862.967742 90.83871 836.175484 90.83871 803.096774L90.83871-35.096774C90.83871-68.175484 117.660903-94.967742 150.709677-94.967742L869.16129-94.967742C902.24-94.967742 929.032258-68.175484 929.032258-35.096774L929.032258 803.096774 929.032258 803.096774ZM270.451613 683.354839 450.064516 683.354839 450.064516 443.870968 270.451613 443.870968 270.451613 683.354839 270.451613 683.354839ZM749.419355 84.645161 270.451613 84.645161 270.451613 144.516129 749.419355 144.516129 749.419355 84.645161 749.419355 84.645161ZM749.419355 264.258065 270.451613 264.258065 270.451613 324.129032 749.419355 324.129032 749.419355 264.258065 749.419355 264.258065ZM749.419355 443.870968 569.806452 443.870968 569.806452 503.741935 749.419355 503.741935 749.419355 443.870968 749.419355 443.870968ZM749.419355 623.483871 569.806452 623.483871 569.806452 683.354839 749.419355 683.354839 749.419355 623.483871 749.419355 623.483871Z"  horiz-adv-x="1024" />

    
    <glyph glyph-name="cc-arrow-left" unicode="&#58892;" d="M71.327 355.185l289.705-295.704c9.381-9.624 24.708-9.624 34.139 0 9.382 9.576 9.382 25.222 0 34.849l-248.494 253.611 786.69 0c13.321 0 24.143 11.049 24.143 24.642 0 13.598-10.821 24.645-24.143 24.645l-786.69 0 248.495 253.633c9.382 9.604 9.382 25.248 0 34.848-4.763 4.836-10.939 7.195-17.117 7.195-6.178 0-12.355-2.406-17.117-7.195l-289.704-295.723c-9.384-9.603-9.384-25.245 0-34.85l0.093 0.049z"  horiz-adv-x="1024" />

    
    <glyph glyph-name="cc-card" unicode="&#59077;" d="M897.338 692.948l-768.146 0c-19.314 0-34.836-5.853-46.496-17.525-11.661-11.672-17.507-27.212-17.507-46.547l0-512.65c0-19.371 5.847-34.874 17.507-46.547 11.66-11.706 27.182-17.524 46.496-17.524l768.147 0c19.314 0 34.835 5.819 46.496 17.524 8.896 8.87 14.389 20.011 16.515 33.315l0 539.08c-2.126 13.34-7.619 24.445-16.515 33.349-11.662 11.673-27.183 17.526-46.497 17.526l0 0zM908.86 174.531c0-19.916-6.023-35.921-18.033-47.944-12.01-12.022-27.998-18.052-47.891-18.052l-659.344 0c-19.894 0-35.845 6.03-47.892 18.052-12.01 12.023-18.033 28.028-18.033 47.944l0 396.04c0 19.915 6.023 35.884 18.033 47.944 12.045 12.022 27.998 18.051 47.892 18.051l659.344 0c19.892 0 35.88-6.029 47.891-18.051 12.01-12.06 18.033-28.028 18.033-47.944l0-396.04zM430.249 398.556c12.686 18.697 18.996 37.713 18.996 57.047 0 26.041-9.641 48.569-28.989 67.585-19.315 19.016-41.678 28.525-67.016 28.559-16.656 0-32.497-4.328-47.488-13.021-14.991-8.656-26.829-20.506-35.511-35.513-8.647-15.043-12.97-30.866-12.97-47.576 0-19.335 6.343-38.351 18.996-57.048-25.34-13.34-45.504-32.037-60.53-56.054-14.991-24.054-22.505-50.414-22.505-79.115 0-16.674 11.022-30.866 33.03-42.574 21.971-11.672 48.658-18.838 79.986-21.499 31.364-2.697 62.694-2.697 94.056 0 31.329 2.661 58.015 9.827 79.988 21.499 22.008 11.707 33.028 25.9 33.028 42.574 0 28.702-7.514 55.062-22.504 79.115-15.027 24.018-35.192 42.715-60.531 56.054l-0.037-0.035zM321.236 455.639c0 10.041 3.013 17.88 9.002 23.521 5.989 5.676 13.644 8.515 23 8.551 6.699 0 12.333-1.348 17.011-4.008 4.643-2.696 8.293-6.351 10.987-11.034 2.692-4.683 4.039-10.36 4.005-17.029 0-9.331-2.978-17.03-9.003-23.024-5.989-5.996-13.644-9.011-23-9.011-6.663 0-12.332 1.348-16.976 4.008-4.678 2.695-8.328 6.528-11.022 11.494-2.693 5.003-4.04 10.537-4.005 16.534l0 0zM257.233 263.421c0 26.04 9.675 48.568 28.989 67.549 19.351 19.017 41.678 28.559 67.016 28.559 16.656 0 32.497-4.329 47.488-13.021 15.027-8.657 26.829-20.506 35.512-35.514 8.647-15.006 13.006-30.865 13.006-47.54 0-8.018-16.019-13.694-48.02-17.029s-64.004-3.335-96.04 0c-32.002 3.335-47.986 9.011-47.986 17.029l0.035-0.035zM609.287 468.658l192.045 0c9.321 0 17.011 3.016 23.001 9.011s9.002 13.695 9.002 23.025c0 9.365-3.013 17.03-9.002 23.06-5.989 5.996-13.679 8.975-23.001 8.975l-192.045 0c-9.356 0-17.01-2.98-23-8.975-6.025-6.031-9.002-13.695-9.002-23.06 0-9.331 2.977-17.03 9.002-23.025 5.989-5.996 13.645-9.011 23-9.011l0 0zM801.332 404.586l-128.042 0c-9.319 0-17.01-3.016-23-9.011-5.989-5.997-9.002-13.659-9.002-23.025 0-9.365 3.013-17.029 9.002-23.059 5.989-5.996 13.68-8.975 23-8.975l128.042 0c9.321 0 17.011 2.98 23.001 8.975 5.989 6.031 9.002 13.694 9.002 23.059 0 9.366-3.013 17.03-9.002 23.025-5.989 5.996-13.68 9.011-23.001 9.011l0 0zM801.332 276.407l-256.049 0c-9.356 0-17.01-2.98-23.035-8.976-5.99-5.995-8.967-13.694-8.967-23.059 0-9.331 2.976-17.03 8.967-23.025 6.024-5.996 13.679-9.011 23.035-9.011l256.049 0c9.321 0 17.011 3.015 23.001 9.011s9.002 13.695 9.002 23.025c0 9.365-3.013 17.065-9.002 23.059-5.989 5.997-13.68 8.976-23.001 8.976l0 0z"  horiz-adv-x="1024" />

    
    <glyph glyph-name="earth2" unicode="&#59103;" d="M512-128C229.248-128 0 101.248 0 384 0 666.752 229.248 896 512 896c282.752 0 512-229.248 512-512C1024 101.248 794.752-128 512-128zM926.976 426.912c0.832 0.416 1.28 1.12 1.6 2.24 0.672-3.552 2.304-6.688 4.928-8.992 0.064-0.32-0.096-0.256 0.064-0.704 0.256 0 0.448 0.192 0.672 0.192C936.928 417.472 940.256 416 944 416c5.76 0 10.56 3.2 13.376 7.712 0.192-0.224 0.512-0.512 0.672-0.768-0.032 0.512-0.096 1.024-0.16 1.536C959.136 426.752 960 429.248 960 432c0 8.832-7.2 16-16 16-5.632 0-10.304-3.072-13.184-7.424-0.128 0.096 0 0.48-0.352 0.352 0.416 1.216-0.704 4.32-2.464 7.648L928 432C928 430.176 927.488 428.544 926.976 426.912zM191.744 431.712c0 4.832-11.008 13.056-13.856 13.056 0 0.864-4.48 10.72-6.176 10.72 0 3.328-11.68 18.272-13.536 11.744-1.216-4.224 8.928-9.92 8.928-14.816 1.888 0 9.824-15.04 11.392-17.664 17.344-29.312-12.96-9.28-12.96 3.136-3.872 1.92-9.984 16.672-9.984 20.704-2.272 1.824-8.992 16.064-8.448 16.064 0 9.344-5.152 13.824-15.392 13.824-0.48 0.928-9.088 13.024-9.248 13.024 0 3.84-6.912 15.744-10.752 17.632 0 7.968-4.096 17.792-2.272 26.048 0 8.672-0.448 18.496-3.392 27.392C79.328 515.2 64 451.456 64 384c0-193.312 122.688-357.568 294.272-420.384 0.192 15.872 1.376 34.88 4.992 34.88 0 2.368 2.016 12.288 3.84 12.288 0 6.08 0.736 13.408 0 20.704-2.272 4.576 3.008 10.432 4.608 17.632 8.864 4.448 2.592 49.056 9.28 49.056 0 22.304 4.992 35.296 1.504 55.968 1.696 0-10.08 12.512-9.984 12.288-11.296 0-19.2 18.112-19.2 26.048-1.088 3.488-3.872 8.704-3.872 13.024 2.592 0-16.16 27.392-16.16 26.848-9.92 5.504 0.544 13.184 1.536 22.208-8.608 2.848 0.096 26.08 3.84 26.08 0.384 2.944 1.92 4.96 4.64 6.112 1.92-7.648 10.848 3.808 3.84 3.808 0 5.056-0.576 15.872 0 18.4 0 7.808-6.912 23.104-12.288 6.912-5.76 2.848-20.288 2.336-21.536 11.488 0.896 4.512-8.288 13.728-11.52 15.328 3.008 7.872-15.584 18.4-22.304 18.4 0 1.696-3.552 0.928-4.608 3.072-6.848 0-8.416 9.216-16.16 9.216-8.928 0-17.92 6.112-26.144 6.112-2.752 5.472-15.52 3.328-18.464 9.216-6.688 0-9.312 12.672-9.504 17.344C204.32 411.808 199.744 431.712 191.744 431.712zM839.936 688.512C839.872 688.32 840 688.448 839.68 687.808c0.48 0 1.056-0.544 1.6-0.768C840.8 687.52 840.384 688 839.936 688.512zM849.568 677.92c1.12-2.176 1.952-4.192 1.696-5.44 1.12-0.032 1.664 0.576 2.56 0.8C852.448 674.848 850.944 676.32 849.568 677.92zM877.376 532.128c0.512 13.824-11.52 11.52-15.328 19.2-3.968 0-5.408 3.072-10.784 3.072-3.488 1.184-6.24 0.352-8.256-2.496-8.224-3.136-3.264 4-9.44 4 0.288 7.904-2.848 10.08-11.552 9.216-4.992-11.264-12.672-18.016-11.52-30.688 3.68-0.832 3.04-1.664 2.304-5.344 4.896-0.256 34.592 1.536 34.592 4.608 1.024 0 6.176-10.592 6.176-1.536 4.128 0 6.304-9.696 16.16-6.88C869.728 523.296 886.176 532.128 877.376 532.128zM878.944 368.832c0.576 2.816-1.408 4.064-3.072 6.912 4.384 0-13.856 33.824-13.856 39.104-2.784 1.376-6.336 11.04-6.976 14.56-3.744 2.496-7.616 10.688-9.216 15.328-3.808 2.528-13.088 13.856-14.592 19.168 5.504-0.608 13.824-1.728 13.824 5.376-3.712 0-4.256 4.576-0.736 4.576-1.152 4.704 2.496 8.096 3.296 11.776 0.96 4.448 2.848 11.296 2.848 16.608-5.28 0-6.56-0.896-10.752-2.304 0-3.104-9.376 0.768-10.752 0.768-2.016 4.032-16.64-5.248-20.736 3.072-6.624 5.984-4.832 10.592-6.976 19.04-1.088 4.288-6.944 4.544-10.496 5.248-10.016 1.952-2.784-11.936-3.328-15.104 6.144 0-3.872-7.616-3.872-11.488-10.368 2.24-6.912 13.792-13.024 16.864-1.824 3.072-0.384 5.376-4.64 5.376 0 4.096 2.176 11.52-2.304 13.024 0 1.984-8.704 2.784-9.984 5.376-5.504 0-18.304 20.8-22.24 13.792-2.464-4.48 2.08-5.568 3.008-9.216 7.968 1.568 7.2-13.12 16.928-11.488 0-2.048 0.256-4.128 0.736-6.144 7.2 1.696 6.368-5.344 9.984-5.344-2.624-3.488-10.944 5.568-8.672-2.048 1.312-4.416 0.576-8.192-5.152-12.512 0 4.768-0.384 17.632-5.376 17.632-3.392 6.784-13.472 5.152-17.728 11.488-3.456 0-4.8 10.752-10.752 11.488-1.12-1.568-5.312-3.072-6.944-3.072-3.232-6.496-21.504-0.672-21.504-1.536-0.288-0.064-10.24-24.384-10.816-27.584-1.12-6.88-6.656-7.008-8.32-13.536-0.832-3.264-20.896-1.728-20.896-4.128-8.672 2.88-16.16 8.96-16.16 18.4-0.704 0 1.632 24.096 3.104 27.616 1.76-0.48 2.112-1.088 3.104-3.072 5.312 1.984 17.696-1.312 17.696 4.608 5.152-0.128 6.688-2.176 4.608-6.144 4.8-0.896 13.088-2.112 13.088 4.608-2.816 0-3.104 0.256-3.104 3.072 9.216 9.568-6.912 18.208-6.912 22.976-3.264 1.088-9.92 8.16-5.184 5.504 4-2.208 18.624-6.784 12.864 2.944 0.384 0.128 0.64 0.384 0.736 0.736 1.632-1.152 8.512-8.224 8.512-1.536 1.888 0 9.184 4.608 3.072 4.608 0.576 3.456 0.448 6.336 0.736 8.448 9.76-5.248 4.32 3.584 9.248 6.88 0-6.368 5.248 3.072 8.448 3.072 3.808 5.664 12.512 1.28 14.624 7.68-4.704 1.536-3.84 13.312-3.84 17.6 5.664-0.928 11.968 7.648 12.832 1.76 0.32-2.272 0.608-8.544 1.76-9.408 8.416-4.416 6.176 2.528 6.176 6.88-2.816 0-6.56 9.856-6.944 14.592-2.304-0.32-6.016-1.28-6.944-3.04-8.384 0-14.08 3.04-20.736 3.04-0.512 1.024-8.512 9.984-7.68 9.984-4.672 8.032 4.672 5.696 6.144 6.08 0 7.616 31.712 6.272 33.088 18.432-10.432 0 10.752 17.664 10.752 17.6 7.072 6.048 10.816 11.264 19.616 11.936 3.712 0.256 44.992 11.648 44.992 6.496 1.664-0.064 7.168-0.128 12.864-0.32C736.512 786.24 629.728 832 512 832c-114.016 0-217.792-42.944-296.864-113.12 0.704-1.6 1.248-3.136 1.216-4.224C220.544 714.944 226.56 717.632 227.904 712.32 225.824 712.352 223.744 712.608 221.76 713.12c1.472-11.872-5.184-4.608-10.752-4.608 0 0.288-2.464 1.28-5.088 1.984-1.696-1.6-3.488-3.104-5.184-4.704C200.928 705.28 200.64 705.248 200.96 704.672c1.792 0 0.864-2.784 5.984-4.48C212.864 698.176 219.36 697.056 225.6 696.064c5.056-0.8 7.968 0.928 12.288 0.928 0 0.64 10.56 5.344 3.104 5.344 1.024 4.224-0.864 5.28-5.408 5.344 0.384 4.48 11.04 1.536 15.392 1.536 3.328 5.6 0.096 4.928 3.04 10.016 3.52 6.24 7.712 0.832 10.016 6.816C267.52 724.768 270.624 722.88 271.744 718.464 274.528 716.16 288.672 695.296 288.672 710.048 293.728 708.352 296.256 698.88 296.352 693.92c9.184 1.344 9.984 8.224 9.984 15.36 2.112 0-0.768 3.424-0.768 4.608C308.992 715.136 313.28 710.624 313.28 715.392c1.472 0 1.536-1.472 1.536-3.072 4.768-0.928 7.84 0.544 10.752-0.48 2.016-0.704 0.992-11.168 0.064-14.848-1.152-4.672-10.08-4.736-10.08-6.912-10.112-7.552 11.936-11.488 15.392-16.096-2.08 0-9.984 1.024-9.984 1.504-4.992 0-17.088-5.28-21.536-1.504 6.208 0 8.288 7.456 9.248 14.56-5.728 2.144-12.48-1.376-14.08-7.072C291.904 672.064 285.664 681.856 282.528 675.52 281.312 675.136 270.208 669.984 270.208 671.712c-12.48-1.76-9.216-12.352-9.216-23.776C265.952 644.96 276.032 636.48 275.584 631.84 286.784 629.856 290.88 628.672 300.96 627.232c0.832-1.632 4.16-3.168 6.176-3.808 0-6.592 5.984-5.408 11.52-5.408 0 8.416 9.792-7.008 10.752-9.952-1.344 0 2.304-8.608 3.072-11.52-1.536 0.544-2.016 0-1.536-1.536 4.864-1.792 12.576-1.28 13.856 3.84-4.672 0-3.104 5.344-3.104 8.448-4.8 3.2-4.064 9.376 0.768 10.72 0-4.352 15.84 2.72 6.912 6.112 2.176 4.896 3.648 12.416 0.096 16.672-2.272 2.688-5.12 0-6.24 4.032 6.048 1.504 1.6 13.024 1.536 18.4 1.92 0.736 6.912-1.216 6.912 0 5.92 0 15.776-7.488 19.232 1.568 9.888-4.512 2.016-8.8 12.32-5.376 0-2.432 11.616-13.792 13.088-13.792 0-0.544-0.288-3.84 2.272-3.84 0-2.464-1.536 1.408-1.536-3.04 1.44-0.16 9.248-1.568 9.248 1.504 4.96 0 8.448 6.08 8.448 10.72 3.104 2.016 8.544-16.864 12.288-16.864 2.752-4.288 11.552-10.528 11.552-14.56 1.856-1.888 3.808-1.376 3.808-6.912 2.336 0 6.944 9.184 6.944 0.768 2.176 0 8.512-4.672 9.248-8.416-5.536 0-0.288-5.376-3.136-5.376 0-5.312-11.872-1.088-14.56-0.768-3.68-16.48-25.888-4.64-39.328-8.896-7.072-2.24-20.736-17.824-21.472-25.6 8.576-0.096 12.352 7.424 20 9.984 6.24 0 7.456 3.776 13.088 5.344 0-1.568 1.536-0.736 1.536-2.304-10.944 0-4.288-7.072-1.088-12.224 1.984-3.2 4.256-4.736 6.784-5.728-1.056-1.856-1.92-3.712-2.592-5.792 0-0.032-0.032 0-0.032-0.032-2.08-0.704-6.144-2.208-6.944-3.84-12.384-1.376-6.272-0.544-5.44 2.432 0.448-1.056 4.896-0.096 4.704-0.128-0.736 3.712-1.856 3.2-0.768 5.344-6.72 0-9.984-3.072-15.392-3.072-0.896-1.824-5.6-6.144-7.68-6.144-1.568-4.736-5.12-13.344-9.248-16.096 0 1.248-10.944-6.88-9.984-6.88-2.432-3.936-5.088-3.808-6.176-9.952-0.736-0.384-3.84-10.656-3.84-12.256-4.768-3.168-6.528-16.096-14.624-16.096-4.96-9.856-13.856-8.544-13.856-21.472 3.008-3.072 4.16-16.672 5.088-21.024 1.152-5.408 2.944-11.04-4.288-11.168-0.512 0.8-5.568 8.448-4.64 8.448 0 3.168-3.872 13.312-6.144 16.48-3.04 4.256-8.672-0.672-13.088 1.184-1.888 3.776-14.656 4.608-19.2 4.608 0.736-2.848 2.816-3.744 3.072-6.912-3.776-1.536-5.952-3.264-9.856-2.72-6.688 0.928-5.888 6.144-13.248 5.408-11.776-1.184-20-10.944-20-22.624-1.312 0-1.312-23.008 0-23.008 0-6.496 5.376-11.2 5.376-16.096 5.216 0 11.072-11.488 16.16-11.488 0.576-4.064-2.56-4.704 6.144-4.64 0 0.448 4.736 2.976 5.376 6.144-6.016 1.472-0.032 9.216 3.84 10.72 0-5.472 7.68 1.824 7.68 2.304 0.864 0.352 8.48 3.072 8.48 3.072 0 6.208 5.792-0.608 1.536-3.072-4.16 0-3.84-6.912-6.144-6.912-0.992-4.928-2.944-9.216-4.096-14.016-1.472-5.92 3.328-6.528 1.792-12.064 6.112-1.152 12.288-0.032 18.464 0 0.032 1.088-0.192 2.144-0.768 3.072 8.928 0 0.768-16.864 6.176-16.864 0-6.368 3.072-11.328 3.072-15.328 4.16-2.752 6.656-6.432 5.376-11.488 5.12-0.672 16.128-1.984 16.128 4.608 7.776 0 8.32-5.28 7.744-10.72 15.488 0 5.792 15.328 12.256 15.328 0.608 2.528 1.664 2.976 3.168 1.312 3.168-1.696 5.568 3.168 8.096 4.704 0.8 0.544 3.616 2.176 4.128 2.176 2.176-1.312 2.368-0.928 3.328-2.4 4.224 0.032 8.48 2.4 12.096 4.896 5.536-0.672 3.744-12.576 14.112-13.312 4.16-0.288 13.792-1.44 17.376 1.024 0.896 0.608 4.192-2.08 4.544-3.232 3.456 0 3.2-3.008 4.672-2.944 0.352-0.672 0.864-0.928 1.568-0.736 0.448-1.312 3.2-1.696 4.64-5.344 0-3.328 6.912-3.904 6.912-6.112 4.96-2.496-1.696-3.168 5.92-5.472 4.192-1.312 8.064-3.424 12.576-3.744 1.44 5.472 6.112-0.736 8.48-0.736 1.216-2.496 1.856-0.608 3.04-3.072 7.136-5.952 2.432-3.648 5.376-9.984 3.424-2.24 4.512-10.048 5.44-14.56-2.752 0-0.8-10.528-0.8-11.52-3.328 0 8.512-6.304 8.512 1.568 4.864-0.8 8.064-6.112 11.52-6.112-2.016-4.64 5.376-8.128 5.376-0.8 7.296-0.736 5.344-11.616 4.64-15.328 5.408 0 6.976 3.008 11.584 3.584C532.128 253.696 537.696 256 544 256c17.696 0 32-14.304 32-32 0-15.936-11.872-28.576-27.136-31.008-2.048-2.336-3.904-4.352-4.032-4.352 0-1.536-0.352-16.832-0.8-16.832 0-3.072-2.336-19.936-4.608-19.936 0-8.672-5.664-10.24-7.68-18.4-4.672-3.456-17.312-9.216-19.264-13.024-3.616 0-6.304-3.072-9.984-3.072-0.512-1.056-8.352-8.448-6.944-8.448-0.576-5.44 0.416-18.24-2.528-21.824-1.984-2.368-4.832-2.112-3.584-5.824-4.32 0 0.256-3.072-6.56-3.072-4.288 0-11.936-6.112-12.16-11.296-0.288-6.336-1.984-10.912-7.424-14.784 0-2.176-9.984-2.816-9.984-8.448 0.928 0 0-10.432 0-11.488-2.976 0.096-10.272-2.88-11.52-5.344-10.048 0-8.832-1.024-15.36-5.376 0-1.344-0.928-6.112-2.304-6.112 0-7.776-5.536-0.704-10.016-4.64 1.76 0 4-7.648 3.072-7.648 0-6.752-4.192-7.328-8.448-12.288-2.016-1.344-3.936-6.912-5.376-6.912 0-4.544-2.272-8.672-2.272-13.024 0.96 0 0.064-1.952 0.736-3.776 2.144 0.608 2.208 3.04 3.072 3.04 0 3.84 6.112-2.272 2.304-2.272-3.168-4.8-6.592-4.896-8.48-11.52-1.92 0-3.584-1.856-4.992-4.032C431.424-57.984 470.976-64 512-64c157.568 0 295.872 81.536 375.744 204.576 0.48 11.328 2.24 22.144 3.488 25.888 3.136-2.304 5.472-6.624 7.68 0-5.536 1.088-4.192 3.008-2.304 7.648 2.112-1.28 6.368-2.848 9.824-2.624 1.056 1.984 1.888 4.096 2.944 6.08-3.136 2.432 1.184 8.736 2.688 5.664 0.8 1.536 1.504 3.136 2.24 4.672-0.352 0.096-0.256-0.128-0.768 0.032 0 2.784 0.512 2.432 2.336 3.84 0.032-0.288 0-0.288 0.064-0.544C943.872 249.696 960 314.88 960 384c0 2.272-0.32 4.448-0.352 6.72-0.832-3.136-2.4-6.528-4.608-7.296 0-2.016-22.88-11.968-21.504-16.096-4.032 0-18.176-4.032-20.768-9.184-2.848 0-14.336-4.064-15.392-6.144C883.104 351.968 885.824 368.832 878.944 368.832zM944 544l-16.992 0c-0.128 0.16-0.256 0.192-0.384 0.416-0.864 0-4.48 8.128-3.072 9.984 1.376 0 2.016-0.128 2.752-0.192-1.44 3.52-3.008 6.976-4.576 10.464-3.456-2.368-6.496-5.376-11.264-5.664 0-1.312-6.816-14.56 0-14.56 0-0.256 0.128-0.448 0.192-0.672C902.496 543.008 896 536.352 896 528c0-8.832 7.168-16 16-16l6.304 0c0.384-2.912 1.952-5.44 7.552-6.688 1.76-7.392 14.944-10.016 16.928-2.272-5.568 0-3.744 5.344-3.264 8.96L944 512c8.8 0 16 7.168 16 16C960 536.832 952.8 544 944 544zM897.376 335.936c1.12-0.064 8.512 0.128 8.512 1.44 6.688 0 15.744 0.928 22.304 3.104 0-9.92-8.352-15.456-6.944-25.312-5.536 0-3.104-5.696-3.104-7.648-3.584-2.208-4.128-6.24-8.448-8.448 0-4.448-9.984-11.808-12.928-15.616-3.328-4.256-13.344-11.648-14.656-17.056 0.352 1.28-18.304-19.424-13.952-19.424 0-3.872-5.248-34.496 1.536-34.496 0-2.688 5.792-28.384 2.272-28.384 0-8.256-5.376-13.312-5.376-19.904-2.624-1.792-6.368-2.784-7.68-5.408-4.704 0-6.976-9.984-9.216-9.984 0-10.656-3.104-18.56-3.104-30.656 0.864 0-6.144-17.248-6.144-18.368-5.664-3.808-20-17.472-20-24.576 0 0-9.984-14.016-11.52-16.096-3.008 0-26.176-4.352-26.176-6.144-4.928 0-17.664-3.872-20.736 0.768 0 4.864-2.656 11.04-3.072 17.664-2.368 0-2.752 9.952-5.376 9.952 0 2.112-14.688 31.456-12.32 31.456 0 3.04-2.624 13.024-3.072 13.024 0 10.56-7.712 19.36-7.712 29.12-2.272 0-6.976 21.44-4.608 21.44 0 11.264 3.936 18.624 5.568 31.136 1.824 13.728-0.864 22.08-3.264 31.776-1.312 0-5.728 7.328-6.176 9.184-6.176 4.096-8.448 12.224-8.448 19.904 4.032 4.608 5.632 21.92 4.64 27.616-7.776 3.68-10.88 2.304-19.264 2.304-4.96 9.952-38.272 3.808-47.712 3.808 0-5.44-23.2 1.056-25.376 5.376-5.664 0-16.896 12.032-16.896 17.632-6.208 4.128-16.128 24.672-16.128 31.424-5.376 2.688-3.744 13.056-0.8 13.056 0.736 2.88-1.888 11.968-3.136 16.288-0.928 3.232 3.136 6.72 3.136 10.56 0 10.688 0.256 15.616 6.24 27.04 1.888 3.584 4.288 6.944 6.048 11.424 3.2 8.032 4.16 0.384 8.48 7.552 4.128 2.048 6.528 8.896 10.784 12.256 1.856 2.464 1.92 3.488 0 5.376 0.832 0 5.376 11.808 5.376 14.528 6.016 8.352 1.76 4.544 7.68 3.84 2.176 2.368 5.792 8.448 9.216 8.448 1.504 2.976 5.28 4.608 8.48 4.608 0-4.608 12.544 1.504 13.856 1.504 2.144 4.32 15.968 9.216 19.232 9.216 0 5.248 27.264-1.472 31.552-0.768 0 0.768 0 1.536 0 2.304 5.824-1.376 16.448-24.736 15.36-29.92 4.48 0 8.64 0.736 11.552 0 0-4.96 9.344-6.176 13.6-6.4 5.92-0.288 23.296 0.608 23.296 8.704 4.576 0 8.64-3.2 7.744-8.416 5.184-0.576 36-1.184 33.824-7.648 4.512 0 5.664-7.712 9.984-7.712-0.864-5.312 5.376-19.168 9.984-19.168 0-4.608 2.88-13.088 6.944-16.064 2.176-6.592 9.376-20.48 16.128-24.544-2.88-5.44 4.384-9.92 6.176-15.328-0.416 0 1.568-8.032 3.808-9.216 0-5.44 11.456-27.616 17.728-27.616C895.488 337.76 889.184 336.544 897.376 335.936zM731.264 507.616c1.184 4.576 3.872 1.024 6.368 0.192 5.92-1.92 3.872 0.096 8.256 2.08C745.888 497.408 738.72 506.88 731.264 507.616zM715.072 530.624c3.136 0 4-14.08-4.608-11.488 0 3.488-2.208 9.952 2.336 9.952C714.112 523.648 715.072 525.856 715.072 530.624zM711.264 539.808c3.552-1.536 5.12-1.024 4.608 1.536 4.672-1.536-0.608-4.864-1.536-8.448C711.936 535.264 712.672 536.096 711.264 539.808zM628.928 608.064c-7.552 1.952 7.776 4.192 8.448 6.112-2.56 0-4.32 2.656-3.328 4.896 1.152 2.656 3.04-3.168 5.664-1.856 3.104 0.32 9.216 4.96 6.08-4-3.2-9.088-6.112-15.744-17.632-15.904C624.032 601.472 628 603.648 628.928 608.064zM657.408 639.488c6.208 0 0.768-4.608-0.608-4.608 1.056-0.416-0.192-4.128-0.192-5.344 5.76 0.064 5.856 3.584 9.984 4.608-0.864-5.152-6.624-6.144-0.992-10.56 2.976-2.336 6.016-5.088 4.832-8.64 7.328 0 8.416-7.04 6.912-15.328 4.064 0 3.872-0.192 3.872 3.872 3.936-1.088 3.648-4.64 0-4.64-3.648-7.2-13.216-6.88-20-6.88-0.064 5.568-1.12 5.92-6.272 4.352-7.04-2.144-1.536 5.6-1.408 9.44 0.768 0 15.968-0.704 6.912 2.304-0.48 8.256-2.336 10.72-9.984 10.72 0 5.632-1.984 5.216-2.912 11.392C646.24 639.296 654.688 629.536 657.408 639.488zM655.072 589.664c0-1.888-3.84-3.392-4.608-0.736 0.736-0.256 1.024 0 0.736 0.736C652.512 589.664 653.824 589.664 655.072 589.664zM592 672l-32 0C551.168 672 544 679.168 544 688 544 696.832 551.168 704 560 704l32 0C600.832 704 608 696.832 608 688 608 679.168 600.832 672 592 672zM405.568 388.8c1.792 0 3.872-0.704 3.872-2.304C407.104 386.496 404.096 384.288 405.568 388.8zM376.384 387.232c-1.28-2.432-11.648-2.016-13.088 0.8 3.84 0 6.816-1.568 10.752 0 0 2.112-1.76 3.808-3.072 6.112 4.192 0 8.896-3.2 14.624-3.072 0 3.552-1.568-0.768 0 3.84 2.4-0.608 8.192-6.112 8.448-8.416C385.632 387.392 385.248 387.232 376.384 387.232zM342.528 405.632c-3.936 0-11.52 3.424-13.856 6.912 3.808-0.16 7.584-1.728 9.984 2.304 9.76-0.992 10.624-7.712 18.464-7.712 1.472-2.592 9.856-8.544 1.76-9.312C352.768 397.248 345.088 400.576 342.528 405.632zM348.672 384.16c-2.848 0-7.552-1.248-5.376 4.64C347.072 388.288 348.864 386.72 348.672 384.16zM354.048 384.928c-1.536-0.256-3.072-0.512-4.608-0.768C349.888 387.712 353.248 391.68 354.048 384.928zM382.496 351.232c-0.608-2.144-0.512-2.272-3.04-2.272 0.256 0.992 0.48 1.984 0.736 3.04C380.992 351.744 381.728 351.488 382.496 351.232zM313.28 414.848c0.736-0.256 1.536-0.544 2.304-0.768 0.992-3.808 3.072-1.92 5.376-0.768C320.96 408.864 310.656 407.584 313.28 414.848z"  horiz-adv-x="1024" />

    
    <glyph glyph-name="gift2" unicode="&#59174;" d="M927.93501 575.890017 96.06499 575.890017c-17.693235 0-31.995001-14.301765-31.995001-31.995001l0-287.955007c0-17.693235 14.301765-31.995001 31.995001-31.995001l31.995001 0 0-319.950008c0-17.693235 14.301765-31.995001 31.995001-31.995001l703.890017 0c17.693235 0 31.995001 14.301765 31.995001 31.995001l0 319.950008 31.995001 0c17.693235 0 31.995001 14.301765 31.995001 31.995001l0 287.955007C959.930011 561.588252 945.628246 575.890017 927.93501 575.890017zM448.009998-32.014998c0-17.693235-14.301765-31.995001-31.995001-31.995001L224.044993-64.009998c-17.693235 0-31.995001 14.301765-31.995001 31.995001l0 255.960006c0 17.693235 14.301765 31.995001 31.995001 31.995001l191.970005 0c17.693235 0 31.995001-14.301765 31.995001-31.995001L448.009998-32.014998zM448.009998 351.925012c0-17.693235-14.301765-31.995001-31.995001-31.995001L160.054991 319.930011c-17.693235 0-31.995001 14.301765-31.995001 31.995001l0 127.980003c0 17.693235 14.301765 31.995001 31.995001 31.995001l255.960006 0c17.693235 0 31.995001-14.301765 31.995001-31.995001L448.009998 351.925012zM831.950008-32.014998c0-17.693235-14.301765-31.995001-31.995001-31.995001l-191.970005 0c-17.693235 0-31.995001 14.301765-31.995001 31.995001l0 255.960006c0 17.693235 14.301765 31.995001 31.995001 31.995001l191.970005 0c17.693235 0 31.995001-14.301765 31.995001-31.995001L831.950008-32.014998zM895.940009 351.925012c0-17.693235-14.301765-31.995001-31.995001-31.995001l-255.960006 0c-17.693235 0-31.995001 14.301765-31.995001 31.995001l0 127.980003c0 17.693235 14.301765 31.995001 31.995001 31.995001l255.960006 0c17.693235 0 31.995001-14.301765 31.995001-31.995001L895.940009 351.925012zM369.910202 575.922012l294.354007 0c50.456116 36.186346 98.160662 83.282987 103.823778 134.602968 2.75157 25.052086-2.62359 61.750352-43.993126 94.417247-22.940416 18.141165-46.232776 27.323731-69.141197 27.323731-73.012592 0-114.318138-89.522012-136.650648-169.509514-26.683831 101.968067-78.195782 233.083581-166.661959 233.083581-25.819966 0-51.511951-11.166255-76.500047-33.210811-49.272301-43.577191-54.103546-88.882112-49.496266-119.213373C235.979128 675.618435 304.19247 617.355538 369.910202 575.922012zM654.953663 755.477957c7.070895 0 16.18947-4.22334 26.331886-12.28608 16.50942-12.98997 15.581565-21.052711 15.325605-23.708296-3.07152-27.995626-55.575316-71.988752-116.813748-108.303078C597.810592 688.6404 627.245993 755.477957 654.953663 755.477957zM321.117825 803.534448c8.030745 7.10289 19.868895 15.54957 30.523231 15.54957 39.609811 0 80.339447-103.983753 104.079738-205.087955-74.804312 39.865771-152.136229 96.400937-159.047149 141.769848C295.74579 762.036932 293.18619 778.834307 321.117825 803.534448z"  horiz-adv-x="1024" />

    
    <glyph glyph-name="hkright" unicode="&#58917;" d="M157.809778 420.693333l206.620444-164.636444 514.446222 473.998222c0 0 34.531556 31.516444 64.682667 6.940444 8.988444-7.395556 19.342222-28.387556-3.982222-61.212444L402.432 46.47822199999996c0 0-41.244444-56.32-90.112 0.625778L80.611556 360.106667c0 0-27.477333 42.382222 6.883556 67.754667C99.100444 436.394667 125.496889 449.649778 157.809778 420.693333L157.809778 420.693333 157.809778 420.693333zM157.809778 420.693333"  horiz-adv-x="1024" />

    
    <glyph glyph-name="14shopcar" unicode="&#58894;" d="M859.562667 719.552 253.333333 719.552c-5.589333 0-10.88-1.152-15.786667-3.029333l-18.773333 83.093333L218.666667 799.594667 218.666667 799.872C218.069333 799.893333 217.493333 800 216.896 800L85.333333 800c-17.664 0-32-9.557333-32-21.333333s14.336-21.333333 32-21.333333l99.242667 0 108.672-480.874667c-35.818667-12.586667-61.248-43.221333-61.248-79.125333 0-27.989333 15.637333-52.650667 39.402667-68.224-20.565333-15.594667-34.069333-40.042667-34.069333-67.776 0-47.061333 38.272-85.333333 85.333333-85.333333s85.333333 38.272 85.333333 85.333333c0 19.029333-6.485333 36.458667-17.066667 50.666667l324.778667 0c-10.581333-14.208-17.045333-31.637333-17.045333-50.666667 0-47.061333 38.272-85.333333 85.333333-85.333333s85.333333 38.272 85.333333 85.333333c0 23.722667-9.749333 45.162667-25.408 60.650667 2.176 3.328 3.754667 7.082667 3.754667 11.349333 0 11.669333-9.386667 21.077333-20.992 21.269333L826.688 154.666667 329.152 154.666667c-30.037333 0-54.485333 19.136-54.485333 42.666667s24.448 42.666667 54.485333 42.666667l469.056 0 0 3.989333c6.933333 27.84 55.317333 222.485333 55.445333 223.68 1.322667 11.989333-9.856 21.333333-21.994667 21.333333-12.138667 0-19.669333-8.341333-21.994667-21.333333-0.170667-0.981333-30.954667-125.077333-45.802667-185.002667L335.573333 282.666667l-58.56 259.114667 561.194667 0c23.530667 0 42.837333 18.368 44.330667 41.514667l20.864 86.826667 0.576 4.970667C904 699.605333 884.053333 719.552 859.562667 719.552zM784 104c23.530667 0 42.666667-19.136 42.666667-42.666667s-19.136-42.666667-42.666667-42.666667-42.666667 19.136-42.666667 42.666667S760.469333 104 784 104zM322.666667 104c23.530667 0 42.666667-19.136 42.666667-42.666667s-19.136-42.666667-42.666667-42.666667-42.666667 19.136-42.666667 42.666667S299.136 104 322.666667 104zM840.576 591.189333l-0.576-4.970667c0-0.981333-0.789333-1.770667-1.770667-1.770667L269.205333 584.448l-17.429333 91.52c0.298667 0.533333 0.896 0.917333 1.557333 0.917333l606.229333 0c0.576 0 1.109333-0.277333 1.408-0.704L840.576 591.189333z"  horiz-adv-x="1024" />

    
    <glyph glyph-name="phonehandle" unicode="&#59251;" d="M959.373097 611.060389c-0.01228 1.727341-0.373507 2.282996-0.373507 2.996241 0 37.038568-74.356498 109.317755-122.092709 139.695622-15.165398 10.637268-32.478715 14.992459-47.938825 13.483082-15.851013-1.548262-29.779234-9.276271-38.575574-22.470781-13.734816-20.6012-101.269451-153.635099-110.10877-167.784354-11.04352-18.407232-8.338922-45.115524 3.370771-68.537979 3.792373-7.583722 14.257725-24.799826 30.335912-50.186006 0.48914-0.77055 18.256806-27.840068 26.591635-40.821731-2.997264-7.333012-7.079232-15.547091-12.734022-25.467021-17.331737-30.407544-43.903929-65.131393-80.896448-102.993722-38.197974-37.329187-73.126484-63.576991-104.116289-80.896448-10.250458-5.727445-18.974144-10.096962-26.591635-13.107529-12.981662 8.333806-40.051181 26.102495-40.821731 26.590612-25.38618 16.077164-42.60126 26.544563-50.186006 30.336936-25.415856 12.70844-50.232055 15.902178-68.911486 2.620687l0 0.375553c-13.777795-8.611122-147.1852-96.001471-167.784354-109.73424-25.703405-17.135262-28.797883-55.010895-8.988722-86.138846l1.122567-1.49812c13.106506-18.020422 35.491329-45.239344 56.177464-67.037812 33.519418-35.32146 58.929134-54.710043 82.769099-53.930283l2.996241 0c43.115983-0.296759 83.466993 6.02318 141.941779 30.710442 86.011956 36.31202 182.682669 104.190991 290.626123 211.228819 107.895359 107.893312 176.090531 204.596771 212.726939 290.626123C952.824961 527.613862 959.669856 567.940312 959.373097 611.060389zM898.492518 481.647971c-36.72339-86.23299-105.97666-180.594101-205.855438-280.481066-100.241029-99.393731-194.621583-168.181397-280.513812-204.443275-55.440683-23.406083-90.727351-28.202319-126.653585-28.202319-0.873903 0-2.850931 0.010233-2.850931 0.010233l-3.518127 0c0 0-0.750083-0.022513-0.86367-0.022513-10.910491 0-30.487362 14.800078-58.187237 43.98784-20.836561 21.956058-42.345434 48.481178-53.511751 63.834864l-0.580215 0.779759c-9.904581 16.247033-9.824763 34.675754 0.322341 41.439808 12.664438 8.444323 118.067023 73.994248 118.067023 73.994248l50.508347 35.911908c1.594311 1.1328 4.318352 2.64013 9.555633 2.64013 4.982478 0 13.628392-1.352811 26.523073-7.800663 4.28663-2.143826 15.9646-8.857738 47.27163-28.684296 0.49221-0.320295 2.070148-1.351787 4.363378-2.852978 8.589632-5.621021 26.460652-17.318434 36.400025-23.697725l13.788028-8.850575 15.238053 6.021134c8.652054 3.418866 18.323321 8.163937 30.43722 14.931061 35.535331 19.859303 72.835865 48.773843 110.869087 85.942371l0.265036 0.257873 0.258896 0.265036c37.251416 38.129412 66.12093 74.972529 85.804225 109.506043 6.217608 10.906397 10.979052 20.458961 14.552437 29.201066l6.290263 15.388479-8.980535 13.989619c-6.488785 10.107195-18.301831 28.1532-23.978111 36.82572-1.360997 2.079358-2.292206 3.501754-2.587941 3.957125-19.799952 31.265074-26.52205 42.957371-28.66997 47.25014-8.04728 16.09763-8.432043 31.028691-4.657067 37.60241 9.462512 15.050788 95.633081 146.029888 109.400642 166.679184 3.26844 4.904707 8.340969 7.723915 15.07637 8.381901 0.946558 0.092098 1.928932 0.13917 2.919493 0.13917 7.852852 0 16.21531-2.832512 23.547299-7.974625l0.588401-0.412392 0.606821-0.385786c21.788236-13.865799 49.779753-37.675064 71.309092-60.657498 28.463262-30.382984 35.603893-47.905056 35.974329-52.18043 0.007163-1.908466 0.172939-3.584642 0.382717-4.983501C927.471526 573.366905 922.402067 537.792689 898.492518 481.647971zM495.312946 799.561577c8.831132 0 15.989159 7.15905 15.989159 15.989159s-7.158027 15.989159-15.989159 15.989159c-62.790068 0-121.708969-10.500145-175.11839-31.208792-52.459792-20.340257-98.546434-50.086745-136.978744-88.410586-38.452777-38.34533-68.301596-84.337827-88.715531-136.699382-20.801768-53.356208-31.348985-112.240317-31.348985-175.017082 0-8.830109 7.15905-15.989159 15.989159-15.989159s15.989159 7.15905 15.989159 15.989159C95.129614 639.07135 255.951393 799.561577 495.312946 799.561577zM511.272429 685.282834c-0.144286 8.830109-7.405667 15.920598-16.246009 15.727193-38.72907-0.629333-76.584236-7.933693-112.51661-21.710464-36.503379-13.996782-69.207222-33.993209-97.202832-59.433624-29.407774-26.724665-52.439326-58.44204-68.453045-94.27106-17.084097-38.22458-25.747407-80.297814-25.747407-125.051087 0-8.830109 7.15905-15.989159 15.989159-15.989159s15.989159 7.15905 15.989159 15.989159c0 171.517375 140.378168 266.347161 272.459369 268.49201C504.375346 669.179065 511.415692 676.452725 511.272429 685.282834zM336.103898 384.555655c0.077771-0.001023 0.154519-0.001023 0.233314-0.001023 8.723685 0 15.858176 7.009647 15.98302 15.760962 0.463558 32.437783 15.686261 68.182892 40.720424 95.618754 27.792996 30.458709 64.346517 47.232744 102.927207 47.232744 8.831132 0 15.989159 7.15905 15.989159 15.989159s-7.158027 15.989159-15.989159 15.989159c-47.679929 0-92.622514-20.476357-126.549208-57.656141-30.156834-33.048697-48.501644-76.68145-49.074695-116.717282C320.218092 391.942903 327.273788 384.682545 336.103898 384.555655z"  horiz-adv-x="1024" />

    
    <glyph glyph-name="telephone" unicode="&#58909;" d="M512 896C229.216 896 0 666.784 0 384c0-282.768 229.216-512 512-512 282.752 0 512 229.232 512 512C1024 666.784 794.752 896 512 896zM512-96C246.896-96 32 118.912 32 384 32 649.104 246.896 864 512 864c265.056 0 480-214.896 480-480C992 118.912 777.056-96 512-96zM632.096 118.576c-78.256 0-168.256 46.912-253.44 132.096-64.256 64.256-107.168 131.776-124.08 195.28-19.104 71.728-3.92 134.944 43.936 182.8l6.608 6.608c10.128 10.144 23.952 15.232 38.448 13.856 14.304-1.36 27.12-8.944 35.184-20.8l59.52-87.552c6.272-9.216 9.152-20.4 8.096-31.504-1.056-11.088-5.984-21.536-13.856-29.408l-30.432-30.448c2.704-12.08 25.168-49.392 74.848-99.088 49.648-49.648 87.008-72.144 99.104-74.864l30.384 30.4c7.904 7.92 18.384 12.832 29.52 13.84 10.96 1.04 22.288-1.84 31.504-8.16l89.056-60.832c11.824-8.096 19.376-20.912 20.72-35.184 1.328-14.288-3.712-28.288-13.872-38.4l-6.624-6.64C722.256 136.064 680.32 118.576 632.096 118.576zM340.208 617.328c-5.6 0-9.504-1.664-12.464-4.624l-6.608-6.608c-39.888-39.888-51.872-91.008-35.648-151.936 15.472-58.048 55.504-120.608 115.776-180.896 78-77.984 162.128-122.72 230.816-122.72 39.44 0 73.744 14.336 102 42.576l6.64 6.656c3.408 3.392 5.072 8.048 4.624 12.816-0.432 4.752-2.96 9.024-6.912 11.712l-89.056 60.848c-2.656 1.824-5.728 2.784-8.944 2.784l-1.6-0.08c-4.72-0.416-7.936-2.736-9.792-4.592l-33.2-33.216c-3.12-3.12-8.72-6.848-17.664-6.848-29.056 0-84.912 45.536-123.888 84.512-27.008 27.008-50.288 54.752-65.536 78.096-12.816 19.632-28 47.552-12.112 63.44l33.248 33.248c1.856 1.856 4.16 5.072 4.624 9.824 0.448 4.72-1.216 8.32-2.688 10.48l-59.536 87.568c-2.688 3.952-6.96 6.48-11.728 6.928C340.432 617.328 340.32 617.328 340.208 617.328z"  horiz-adv-x="1024" />

    
    <glyph glyph-name="question" unicode="&#58906;" d="M512-67.764706C761.50275-67.764706 963.764706 134.49725 963.764706 384 963.764706 633.50275 761.50275 835.764706 512 835.764706 262.49725 835.764706 60.235294 633.50275 60.235294 384 60.235294 134.49725 262.49725-67.764706 512-67.764706L512-67.764706 512-67.764706 512-67.764706 512-67.764706ZM512-128 512-128C229.2302-128 0 101.2302 0 384 0 666.7698 229.2302 896 512 896 794.7698 896 1024 666.7698 1024 384 1024 101.2302 794.7698-128 512-128L512-128ZM400.972619 580.686667C374.15171 552.52471 361.411765 514.975443 361.411765 468.038867L414.383074 468.038867C414.383074 500.894479 421.758825 526.37434 436.510298 545.148958 452.60285 567.276213 477.412201 578.00457 510.938353 578.00457 539.10028 578.00457 561.227535 570.628819 576.649577 554.536297 591.40108 539.784794 599.447341 518.998588 599.447341 492.177679 599.447341 473.403031 592.742129 455.969431 579.331674 439.20637 575.308529 433.842206 567.262238 425.795915 556.53388 415.067558 520.325662 382.882455 498.198408 357.402594 488.811098 337.286927 480.764808 320.523836 476.741692 301.078679 476.741692 278.951424L476.741692 263.529412 530.383511 263.529412 530.383511 278.951424C530.383511 297.055563 534.406626 313.148085 543.123426 327.899588 549.828668 339.968994 559.886487 352.03843 574.63799 364.778345 604.140996 390.928745 622.245105 408.362315 628.950347 416.408606 645.713408 438.535861 654.430208 464.686231 654.430208 494.859776 654.430208 535.09114 641.690263 566.605704 616.880941 589.403467 590.730541 613.54228 556.53388 624.941176 513.62042 624.941176 465.342795 624.941176 427.793528 610.189673 400.972619 580.686667L400.972619 580.686667 400.972619 580.686667 400.972619 580.686667 400.972619 580.686667ZM518.023529 203.294118C507.783529 203.294118 499.350588 200.282353 492.122353 193.054118 484.894118 186.428235 481.882353 177.995294 481.882353 167.755294 481.882353 157.515294 484.894118 149.082353 492.122353 141.854118 499.350588 135.228235 507.783529 131.614118 518.023529 131.614118 528.263529 131.614118 536.696471 135.228235 543.924706 141.854118 551.152941 148.48 554.767059 156.912941 554.767059 167.755294 554.767059 177.995294 551.152941 186.428235 544.527059 193.054118 537.298824 200.282353 528.263529 203.294118 518.023529 203.294118L518.023529 203.294118 518.023529 203.294118 518.023529 203.294118 518.023529 203.294118Z"  horiz-adv-x="1024" />

    
    <glyph glyph-name="dataarchive" unicode="&#58887;" d="M129.10235699 191.45265900000004L129.10235699-24.82003599999996c0-9.12277501 7.396457-16.519232 16.51923201-16.519232l732.75273 0c9.12277501 0 16.519232 7.396457 16.519232 16.51923199l0 216.272695c0 9.12277501-7.396457 16.519232-16.519232 16.51923201L145.621589 207.97189100000003C136.498814 207.97189100000003 129.102357 200.57543399999997 129.10235699 191.45265900000004zM861.85611 174.93444999999997L861.85611-8.300803999999971 162.140821-8.300803999999971l0 183.235254L861.85611 174.93444999999997zM526.490016 41.921018000000004l0 82.790588c0 7.461949-6.048763 13.510712-13.510712 13.510712L227.048109 138.22231699999998c-7.461949 0-13.510712-6.048763-13.510712-13.510712l0-82.790588c0-7.461949 6.048763-13.510712 13.510712-13.510712l285.93119499 0C520.441253 28.41030599999999 526.490016 34.459069 526.490016 41.921018000000004zM240.558821 55.43172900000002l0 55.769165L499.468592 111.20089399999995 499.468592 55.43172900000002 240.558821 55.43172900000002zM692.19603501 83.31579999999997c0 34.026978-28.879748 61.71048-64.37619301 61.71048s-64.376193-27.683503-64.376193-61.71048 28.879748-61.71048 64.376193-61.71048S692.196035 49.28882199999998 692.19603501 83.31579999999997zM596.48109001 83.31579999999997c0 15.81008101 14.05818101 28.67304 31.33875199 28.67304s31.338752-12.861936 31.338752-28.67304-14.05818101-28.67304-31.338752-28.67304S596.48109 67.505719 596.48109001 83.31579999999997zM129.102357 492.136859L129.102357 275.86314100000004c0-9.12277501 7.396457-16.519232 16.519232-16.519232l732.75273 0c9.12277501 0 16.519232 7.396457 16.519232 16.519232l0 216.273718c0 9.12277501-7.396457 16.519232-16.519232 16.519232L145.621589 508.656091C136.498814 508.655068 129.102357 501.25963401 129.102357 492.136859zM861.85611 475.617627L861.85611 292.38237300000003 162.140821 292.38237300000003l-1e-8 183.236278L861.85611001 475.618651zM526.507412 342.604194l0 82.790588c0 7.461949-6.049786 13.511735-13.511735 13.511735L227.031736 438.906517c-7.461949 0-13.511735-6.049786-13.511735-13.511735l-1e-8-82.790588c0-7.461949 6.049786-13.511735 13.51173501-13.511735l285.96394 0C520.457626 329.09245899999996 526.507412 335.142246 526.507412 342.604194zM240.543472 356.11592899000004l0 55.76711801 258.939447 0 0-55.76711801L240.543472 356.11592899000004zM692.196035 384c0 34.026978-28.879748 61.71048-64.376193 61.71048s-64.376193-27.683503-64.376193-61.71048 28.879748-61.71048 64.376193-61.71048S692.196035 349.973022 692.196035 384zM596.48109 384c0 15.81008101 14.05818101 28.67304 31.338752 28.67304001s31.338752-12.861936 31.338752-28.67304001-14.05818101-28.67304-31.338752-28.67304001S596.48109 368.18991899 596.48109 384zM129.10235699 792.820036L129.10235699 576.5463179999999c0-9.12277501 7.396457-16.519232 16.51923201-16.519232l732.75273 0c9.12277501 0 16.519232 7.396457 16.51923199 16.519232l1e-8 216.27371801c0 9.12277501-7.396457 16.519232-16.519232 16.51923199L145.621589 809.339268C136.498814 809.338245 129.102357 801.942811 129.10235699 792.820036zM861.85611 776.300804L861.85611 593.06555 162.140821 593.06555l0 183.236278L861.85611 776.30182699zM526.507412 643.288394l0 82.790588c0 7.461949-6.049786 13.511735-13.511735 13.511735L227.031736 739.590717c-7.461949 0-13.511735-6.049786-13.51173501-13.511735l1e-8-82.790588c0-7.461949 6.049786-13.511735 13.511735-13.511735l285.96394 0C520.457626 629.776659 526.507412 635.826446 526.507412 643.288394zM240.543472 656.80013l0 55.767118 258.939447 0 0-55.767118L240.543472 656.80013zM692.19603501 684.683177c0 34.026978-28.879748 61.71048-64.37619301 61.71048s-64.376193-27.683503-64.376193-61.71048 28.879748-61.71048 64.376193-61.71048S692.196035 650.656199 692.19603501 684.683177zM596.48109001 684.683177c0 15.81008101 14.05818101 28.67304 31.33875199 28.67304s31.338752-12.861936 31.338752-28.67304-14.05818101-28.67304-31.338752-28.67304S596.48109 668.873096 596.48109001 684.683177z"  horiz-adv-x="1024" />

    
    <glyph glyph-name="checktriangle" unicode="&#59088;" d="M64-64l832 0c35.392 0 64 28.608 64 64L960 832 64-64zM674.88 21.75999999999999C667.136 9.344000000000051 653.632 0 638.976 0c-0.64 0-1.344 0-1.344 0-14.656 0-27.776 7.36-36.224 18.496L457.28 199.67999999999995c-14.848 19.648-11.008 47.808 8.64 62.784 19.776 14.72 47.616 11.008 62.528-8.64l105.024-129.152 189.248 303.808c12.992 20.864 40.512 27.264 61.376 14.272 20.992-12.992 27.264-40.512 14.272-61.44L674.88 21.75999999999999z"  horiz-adv-x="1024" />

    
    <glyph glyph-name="yuncunchu" unicode="&#59016;" d="M512 70.4c-211.2 0-377.6 57.6-377.6 128v0l0-198.4c6.4-70.4 172.8-128 377.6-128s371.2 57.6 377.6 128v0 204.8c0-76.8-166.4-134.4-377.6-134.4v0zM512 352c-211.2 0-377.6 57.6-377.6 128v0-204.8c6.4-70.4 172.8-128 377.6-128s371.2 57.6 377.6 128v0 204.8c0-70.4-166.4-128-377.6-128v0zM889.6 768v0c0 70.4-166.4 128-377.6 128-211.2 0-377.6-57.6-377.6-128v0 0-204.8c6.4-70.4 172.8-128 377.6-128s371.2 57.6 377.6 128v0 204.8zM512 678.4c-153.6 0-281.6 44.8-281.6 96 0 51.2 128 96 281.6 96 153.6 0 281.6-44.8 281.6-96 0-57.6-128-96-281.6-96v0z"  horiz-adv-x="1024" />

    
    <glyph glyph-name="data06" unicode="&#59003;" d="M104.341928 170.142308l152.562675 0 0-192.199417L104.341928-22.057109 104.341928 170.142308 104.341928 170.142308zM104.341928 170.142308M337.001849 367.205499l156.375513 0 0-389.262608L337.001849-22.057109 337.001849 367.205499 337.001849 367.205499zM337.001849 367.205499M569.663816 292.199201 724.77043 292.199201l0-314.257334L569.663816-22.058133 569.663816 292.199201 569.663816 292.199201zM569.663816 292.199201M802.323737 482.902544l156.381653 0 0-504.960677-156.381653 0L802.323737 482.902544 802.323737 482.902544zM802.323737 482.902544M62.385351 360.849744 424.726819 693.952284l207.944006-204.288756 196.35097 228.444922L757.82322 793.007301l200.88217 0 0-194.408735-70.232574 72.374354L632.670825 361.35628 422.513408 577.418174 112.80774 289.093467 62.385351 360.849744zM62.385351 360.849744"  horiz-adv-x="1024" />

    
    <glyph glyph-name="shangupper7" unicode="&#59080;" d="M512 873.41067731L34.76720507-97.51121563000004l475.8833778 248.19396613L989.23279493-97.51121563000004 512 873.41067731zM118.56270184-15.953776879999964L512 774.67285742l378.49497575-773.44625388-378.49497504 197.47563907L118.56270184-15.953776879999964z"  horiz-adv-x="1024" />

    
    <glyph glyph-name="LC_icon_user_fill_2" unicode="&#58907;" d="M512.002 350.556c151.53 0.008 206.050 151.729 220.326 276.358 17.582 153.535-55.017 269.086-220.326 269.086-165.282 0-237.921-115.543-220.326-269.084 14.289-124.627 68.792-276.371 220.326-276.36zM921.903-10.722c-1.656 48.362-7.324 96.944-15.763 144.553-10.225 57.674-23.239 142.226-73.592 179.811-29.12 21.732-66.829 28.861-100.166 41.966-16.225 6.375-30.76 12.706-44.402 19.913-46.043-50.491-106.081-76.904-175.997-76.907-69.896 0-129.928 26.413-175.966 76.907-13.642-7.208-28.177-13.541-44.402-19.913-33.337-13.105-71.046-20.232-100.163-41.966-50.357-37.585-63.369-122.137-73.592-179.811-8.441-47.609-14.11-96.191-15.765-144.553-1.282-37.458 17.214-42.708 48.551-54.018 39.242-14.152 79.755-24.658 120.539-33.27 78.769-16.633 159.963-29.418 240.809-29.99 80.846 0.574 162.040 13.357 240.809 29.99 40.784 8.609 81.301 19.115 120.539 33.27 31.349 11.306 49.843 16.556 48.561 54.018z"  horiz-adv-x="1024" />

    
    <glyph glyph-name="i-money" unicode="&#58890;" d="M383.613 562.141h277.493c18.724 0 36.743 7.924 48.757 22.284 28.624 34.025 55.8 75.816 61.884 113.243 12.268 74.934-19.839 112.989-112.989 112.989-93.13 0-61.63-61.122-97.846-66.17-26.98-3.737-26.022 31.872-68.42 66.072-30.463 24.457-64.584-44.648-104.791-45.078-46.918-0.626-112.911 12.346-112.911-67.813 0-32.38 28.389-76.168 59.38-112.461 12.443-14.537 30.366-23.068 49.441-23.068zM729.8 490.748c-14.811 16.807-36.313 26.218-58.675 26.218h-296.139c-21.404 0-42.046-8.628-56.837-24.125-93.053-97.493-178.884-236.68-178.884-338.184 0-89.472 89.922-202.461 200.818-202.461h343.839c110.896 0 200.818 112.030 200.818 202.461 0 103.343-69.025 238.597-154.937 336.091v0zM639.35 367.584l-59.537-108.020c-5.225-9.489 1.643-21.17 12.443-21.17h16.884c7.846 0 14.282-6.339 14.282-14.263 0-7.846-6.359-14.282-14.282-14.282h-42.475c-8.275 0-14.889-6.613-14.968-14.889v-7.043c0-7.825 6.359-14.282 14.263-14.282h43.18c7.846 0 14.282-6.339 14.282-14.263s-6.359-14.282-14.282-14.282h-43.18c-7.826 0-14.263-6.359-14.263-14.282v-36.293c0-7.825-6.359-14.263-14.282-14.263h-25.846c-7.846 0-14.282 6.339-14.282 14.263v36.293c0 7.846-6.359 14.282-14.282 14.282h-42.73c-7.846 0-14.282 6.359-14.282 14.282 0 7.924 6.359 14.263 14.282 14.263h42.652c7.924 0 14.282 6.359 14.361 14.282l0.097 6.966c0.078 8.276-6.632 15.066-14.987 15.066h-42.125c-7.846 0-14.282 6.339-14.282 14.263 0 7.846 6.359 14.282 14.282 14.282h16.454c10.878 0 17.668 11.661 12.443 21.15l-59.537 108.020c-5.225 9.489 1.643 21.15 12.443 21.15h28.37c5.4 0 10.37-3.032 12.718-7.826l48.482-96.711c5.224-10.448 20.191-10.448 25.513 0l48.482 96.711c2.426 4.793 7.318 7.826 12.697 7.826h28.389c10.957-0.157 17.843-11.739 12.62-21.228v0z"  horiz-adv-x="1024" />

    
    <glyph glyph-name="bookmultiple" unicode="&#59064;" d="M810.666667 128 384 128C337.066667 128 298.666667 166.4 298.666667 213.333333L298.666667 725.333333C298.666667 772.266667 337.066667 810.666667 384 810.666667L426.666667 810.666667 426.666667 597.333333 512 661.333333 597.333333 597.333333 597.333333 810.666667 810.666667 810.666667C857.6 810.666667 896 772.266667 896 725.333333L896 213.333333C896 166.4 857.6 128 810.666667 128M725.333333 42.666667 725.333333-42.666667 213.333333-42.666667C166.4-42.666667 128-4.266667 128 42.666667L128 640 213.333333 640 213.333333 42.666667 725.333333 42.666667Z"  horiz-adv-x="1024" />

    
    <glyph glyph-name="googleearth" unicode="&#59562;" d="M529.066667 573.44C409.6 686.506667 311.466667 654.933333 269.226667 635.733333 301.226667 666.453333 338.773333 691.2 380.586667 708.266667 499.2 712.533333 632.746667 689.493333 706.56 584.106667 706.56 584.106667 810.666667 405.333333 847.36 484.266667 856.746667 452.266667 861.866667 418.986667 861.866667 384 861.866667 371.2 861.013333 358.826667 859.733333 346.453333 773.12 356.266667 654.08 455.68 529.066667 573.44M814.933333 209.066667C774.826667 193.28 725.333333 166.4 645.973333 166.4 565.76 166.4 495.36 198.4 407.893333 226.133333 328.533333 251.306667 298.666667 290.133333 244.053333 290.133333 215.893333 290.133333 201.813333 261.973333 194.133333 238.506667 173.653333 282.88 162.133333 331.946667 162.133333 384 162.133333 418.56 167.253333 451.413333 176.64 482.986667 230.4 550.4 312.746667 592.213333 430.506667 500.906667 430.506667 500.906667 696.32 302.08 848.213333 288.853333 840.533333 260.693333 829.013333 234.666667 814.933333 209.066667M512 34.133333C464.213333 34.133333 418.56 43.946667 376.746667 61.44 350.293333 124.586667 350.72 174.08 424.533333 149.333333 424.533333 149.333333 591.786667 85.333333 768 145.92 704 77.226667 613.12 34.133333 512 34.133333M512 810.666667C276.48 810.666667 85.333333 619.52 85.333333 384 85.333333 148.48 276.48-42.666667 512-42.666667 747.52-42.666667 938.666667 148.48 938.666667 384 938.666667 619.946667 746.666667 810.666667 512 810.666667Z"  horiz-adv-x="1024" />

    
    <glyph glyph-name="key" unicode="&#59641;" d="M421.49033201 172.81077516000005C388.30345327 139.62389642000005 333.99765248 139.62389642000005 300.81077445 172.81077445000005 267.62389642 205.99765248000006 267.62389642 260.30345327 300.81077516 293.49033201 333.99765319 326.67721004 388.30345398 326.67721004 421.49033201 293.49033201 454.67721004 260.30345398 454.67721004 205.99765319000005 421.49033201 172.81077516000005M471.2706494 463.95020625C376.23549801 509.50674009 258.87462875 492.91330072 180.1312176 414.16988957 80.26888368 314.30755565000004 80.26888368 151.99355151999998 180.1312176 52.131217600000014 279.99355152-47.731116319999956 442.30755565-47.731116319999956 542.16988957 52.131217600000014 620.91330072 130.87462875000006 637.50674009 248.23549801000001 591.95020625 343.2706494L723.18922484 474.50966799 843.8687824 353.83011043 964.54833996 474.50966799 843.8687824 595.18922555 904.20856083 655.52900398 783.52900398 776.20856083 471.2706494 463.95020625Z"  horiz-adv-x="1024" />

    
    <glyph glyph-name="squareinc" unicode="&#60081;" d="M256 768 768 768C838.826667 768 896 710.826667 896 640L896 128C896 57.173333 838.826667 0 768 0L256 0C185.173333 0 128 57.173333 128 128L128 640C128 710.826667 185.173333 768 256 768M298.666667 640C275.2 640 256 620.8 256 597.333333L256 170.666667C256 147.2 275.2 128 298.666667 128L725.333333 128C748.8 128 768 147.2 768 170.666667L768 597.333333C768 620.8 748.8 640 725.333333 640L298.666667 640M405.333333 512 618.666667 512C630.613333 512 640 502.613333 640 490.666667L640 277.333333C640 265.386667 630.613333 256 618.666667 256L405.333333 256C393.386667 256 384 265.386667 384 277.333333L384 490.666667C384 502.613333 393.386667 512 405.333333 512Z"  horiz-adv-x="1024" />

    
    <glyph glyph-name="triangle" unicode="&#60208;" d="M42.666667 0 981.333333 0 512 810.666667"  horiz-adv-x="1024" />

    
    <glyph glyph-name="shop_car" unicode="&#58900;" d="M376.411 147.153c-52.906 0-95.8-41.173-95.8-91.967 0-50.795 42.894-91.968 95.8-91.968 52.925 0 95.819 41.173 95.819 91.968 0 50.793-42.893 91.967-95.819 91.967zM874.613 312.693l114.963 294.29c2.958 57.405-38.308 55.177-38.308 55.177h-670.655c18.265 84.441-57.491 128.749-57.491 128.749h-134.128c-76.318-20.713-19.163-91.968-19.163-91.968l114.983-18.395c0 0 59.494-347.562 76.636-423.039 17.142-75.478 38.328-73.572 38.328-73.572l574.836 0c40.611 62.813 0 73.572 0 73.572l-517.346-0v55.186h517.346zM759.65 147.153c-52.924 0-95.799-41.173-95.799-91.967 0-50.795 42.874-91.968 95.799-91.968 52.925 0 95.8 41.173 95.8 91.968 0 50.793-42.876 91.967-95.8 91.967z"  horiz-adv-x="1024" />

    
    <glyph glyph-name="32" unicode="&#59105;" d="M990.4 494.4c-3.2 8-9.6 14.4-19.2 16l-302.4 44.8-136 273.6c-3.2 8-12.8 12.8-20.8 12.8-9.6 0-17.6-4.8-20.8-12.8l-136-275.2-302.4-43.2c-9.6-1.6-16-8-19.2-16s0-17.6 6.4-24l217.6-214.4-51.2-302.4c-1.6-9.6 1.6-17.6 9.6-22.4s17.6-6.4 25.6-1.6l270.4 142.4 270.4-142.4c3.2-1.6 8-3.2 11.2-3.2 4.8 0 9.6 1.6 14.4 4.8 8 4.8 11.2 14.4 9.6 22.4l-51.2 302.4 219.2 214.4c6.4 4.8 8 14.4 4.8 24zM723.2 281.6c-4.8-4.8-8-12.8-6.4-20.8l46.4-267.2-240 126.4c-3.2 1.6-8 3.2-11.2 3.2v641.6l120-243.2c3.2-6.4 9.6-11.2 17.6-12.8l267.2-38.4-193.6-188.8z"  horiz-adv-x="1024" />

    
    <glyph glyph-name="previewleft" unicode="&#59227;" d="M629.291 55.168l60.331 60.331-268.501 268.501 268.501 268.501-60.331 60.331-328.832-328.832z"  horiz-adv-x="1024" />

    
    <glyph glyph-name="wechat" unicode="&#58921;" d="M362.403292 800.884186C163.141681 800.884186 0 665.43445 0 492.660788c0-99.329806 54.179894-181.201646 145.081717-244.411523l-36.119929-108.961787 126.419753 63.811875c45.149912-9.029982 81.87184-18.059965 127.021752-18.059965 11.437978 0 22.875955 0.601999 33.711934 1.203998-7.223986 24.079953-11.437978 49.363904-11.437978 75.851852 0 158.325691 136.051734 286.55144 308.223398 286.55144 12.039976 0 23.477954-0.601999 34.915932-2.407995C696.51264 692.524397 540.594944 800.884186 362.403292 800.884186zM240.79953 556.472663c-24.681952 0-44.547913 19.865961-44.547913 44.547913 0 24.681952 19.865961 44.547913 44.547913 44.547913s44.547913-19.865961 44.547913-44.547913C285.347443 576.338624 265.481481 556.472663 240.79953 556.472663zM495.445032 556.472663c-24.681952 0-44.547913 19.865961-44.547913 44.547913 0 24.681952 19.865961 44.547913 44.547913 44.547913s44.547913-19.865961 44.547913-44.547913C539.992945 576.338624 520.126984 556.472663 495.445032 556.472663zM1024 266.30922999999996c0 145.081717-145.081717 263.073486-307.621399 263.073486-172.171664 0-308.223398-117.99177-308.223398-263.073486 0-145.081717 136.051734-263.073486 308.223398-263.073486 36.119929 0 72.239859 9.029982 108.961787 18.059965l99.329806-54.179894-27.089947 90.299824C969.820106 112.19753100000003 1024 184.43739000000005 1024 266.30922999999996zM620.660788 312.061141c-19.865961 0-36.119929 16.253968-36.119929 36.119929s16.253968 36.119929 36.119929 36.119929 36.119929-16.253968 36.119929-36.119929S640.526749 312.061141 620.660788 312.061141zM817.514403 312.061141c-19.865961 0-36.119929 16.253968-36.119929 36.119929s16.253968 36.119929 36.119929 36.119929 36.119929-16.253968 36.119929-36.119929S837.982363 312.061141 817.514403 312.061141z"  horiz-adv-x="1024" />

    
    <glyph glyph-name="triangle-play" unicode="&#58903;" d="M891.161 384l-749.992-450v900l749.992-450z"  horiz-adv-x="1024" />

    
    <glyph glyph-name="1201youjiantou" unicode="&#58930;" d="M816.653093 426.455951c-1.49505 1.49505-3.060709 2.874467-4.676509 4.15974L428.47519 816.104345c-21.351284 21.350261-55.967686 21.350261-77.317946 0-21.350261-21.351284-21.350261-55.966663 0-77.317946l349.259522-351.247806L343.656409 31.116951c-21.350261-21.351284-21.350261-55.966663 0-77.31897 21.350261-21.350261 55.966663-21.350261 77.317946 0l390.998135 390.661468c1.616824 1.286296 3.183506 2.664689 4.679579 4.160763 10.740622 10.740622 16.07307 24.839735 16.006556 38.917358C832.726164 401.61724 827.393715 415.715329 816.653093 426.455951z"  horiz-adv-x="1024" />

    
    <glyph glyph-name="lock" unicode="&#58993;" d="M512 302.679903c-44.908816 0-81.320097-36.401048-81.320097-81.320097 0-20.884656 8.089235-39.726793 21.024849-54.120618-0.268106-2.282996-0.694825-4.53734-0.694825-6.869455 0-33.69031 27.298739-60.990073 60.990073-60.990073 33.69031 0 60.990073 27.298739 60.990073 60.990073 0 2.332115-0.447185 4.586458-0.695848 6.869455 12.935614 14.414291 21.025872 33.234939 21.025872 54.120618C593.320097 266.278855 556.908816 302.679903 512 302.679903M532.330024 186.329988l0-25.959232c0-11.246135-9.112542-20.330024-20.330024-20.330024-11.218506 0-20.330024 9.083889-20.330024 20.330024l0 25.959232c-12.100596 7.046486-20.330024 20.020986-20.330024 35.030841 0 22.433942 18.215874 40.660048 40.660048 40.660048s40.660048-18.226107 40.660048-40.660048C552.660048 206.350974 544.420387 193.358055 532.330024 186.329988M755.959268 465.319074 755.959268 587.299219c0 134.734634-109.23282 243.959268-243.959268 243.959268S268.040732 722.033853 268.040732 587.299219l0-121.979122c-44.908816 0-81.320097-36.401048-81.320097-81.320097L186.720635 18.06161c0-44.919049 36.411281-81.320097 81.320097-81.320097l487.918535 0c44.908816 0 81.320097 36.401048 81.320097 81.320097L837.279365 384C837.279365 428.919049 800.868083 465.319074 755.959268 465.319074M308.700781 587.299219c0 112.27204 91.018993 203.299219 203.299219 203.299219s203.299219-91.02718 203.299219-203.299219l0-121.979122L308.700781 465.320097 308.700781 587.299219zM796.619316 18.060587c0-22.444175-18.215874-40.660048-40.660048-40.660048L268.040732-22.599462c-22.444175 0-40.660048 18.215874-40.660048 40.660048L227.380684 384c0 22.433942 18.215874 40.660048 40.660048 40.660048l447.258487 0 40.660048 0c22.444175 0 40.660048-18.226107 40.660048-40.660048L796.619316 18.060587z"  horiz-adv-x="1024" />

    
    <glyph glyph-name="x" unicode="&#58901;" d="M590.7456 387.584 1016.832-38.5024 938.0864-113.664 512 312.4224 78.7456-128 0-45.6704l433.2544 440.4224L7.168 820.8384 85.9136 896 512 469.9136 938.0864 896 1016.832 813.6704 590.7456 387.584z"  horiz-adv-x="1024" />

    
    <glyph glyph-name="phone6dianhua" unicode="&#59001;" d="M995.320083 95.194465C1005.764037 84.750511 1010.16688 75.023299 1008.733397 66.115221L1006.480779 50.44929c-5.938719-14.949189-14.539622-31.024687-25.700318-48.124102C969.517373-14.876619 956.10406-31.566467 940.438129-48.051532 924.772197-64.434205 908.082349-79.281002 890.163801-92.796707c-17.918549-13.413314-35.837097-24.57401-53.653254-33.58448-35.837097-4.505235-71.98137 0.409567-108.535209 14.539622C691.421499-97.506726 657.529844-81.53362 626.197982-63.717463c-92.459711 52.21977-180.823753 118.160029-265.092128 197.923168C276.83748 214.071236 202.603493 296.49656 138.506285 381.481676c-17.918549 26.826627-35.837097 55.905872-53.653254 87.237734C66.934482 500.051272 51.268551 530.564 37.855238 560.462379 24.441924 590.258365 14.407537 618.211301 7.649684 644.321186c-6.757853 26.007493-7.884161 47.304968-3.378926 63.790033C10.209477 722.958016 19.629514 739.443081 32.223694 757.259238s27.236194 34.710788 43.618867 50.376719c16.382673 15.665931 33.58448 29.795987 51.503028 42.492558 17.918549 12.59418 35.837097 21.297475 53.653254 25.700318l26.826627 0c11.97983-3.071751 20.887908-8.191337 26.826627-15.665931C240.693208 852.688308 247.348669 844.496972 254.823263 835.588893c35.837097-58.158489 76.077038-117.852854 120.822213-178.980703 14.949189-23.857268 16.382673-48.431277 4.505235-73.82442-2.969359-4.505235-7.474595-12.287005-13.413314-23.447701C360.696288 548.175374 354.348002 536.605111 347.692541 524.625281 340.934688 512.645452 335.712711 501.484756 332.02661 491.143193 328.238117 480.699239 327.930942 473.941387 330.900301 470.972027c38.806457-53.653254 82.015757-100.651047 129.730292-140.890988 47.714535-40.239941 94.712328-83.551632 140.890988-129.730292 7.474595-3.071751 13.413314-3.071751 17.918549 0 13.413314 7.474595 28.362503 15.665931 44.745176 24.57401 16.382673 8.908078 32.765346 17.099415 49.250411 24.57401C735.757108 259.942721 760.433509 258.406845 787.260136 244.993532c29.795987-20.887908 60.00154-41.366249 90.61666-61.537415 30.61512-20.171166 60.00154-40.649507 88.364043-61.537415C975.148917 114.444106 984.876129 105.536028 995.320083 95.194465zM975.148917 394.89499c11.97983 0 17.918549 5.938719 17.918549 17.918549 0 134.235527-46.997793 248.299888-140.890988 342.295474C758.180891 849.002207 644.116531 896 509.881004 896 497.901174 896 491.962455 890.061281 491.962455 878.081451c0-11.97983 5.938719-17.918549 17.918549-17.918549 125.225057 0 230.381339-44.028434 315.468847-131.982909 87.954476-84.985116 131.982909-190.141399 131.982909-315.468847C957.230368 400.833708 963.271479 394.89499 975.148917 394.89499zM832.005312 394.89499c11.97983 0 17.918549 5.938719 17.918549 17.918549 0 95.42907-33.58448 175.192209-100.651047 239.391809C685.073213 719.271915 605.310074 752.856395 509.881004 752.856395c-11.97983 0-17.918549-5.938719-17.918549-17.918549 0-11.97983 5.938719-17.918549 17.918549-17.918549 83.551632 0 155.123435-29.898378 214.715408-89.490351 59.694365-59.694365 89.490351-131.266167 89.490351-214.715408C814.086763 400.833708 820.025482 394.89499 832.005312 394.89499zM688.861706 394.89499c11.97983 0 17.918549 5.938719 17.918549 17.918549 0 56.725005-19.352032 102.903665-58.158489 138.740762-35.837097 38.806457-82.015757 58.158489-138.740762 58.158489-11.97983 0-17.918549-5.938719-17.918549-17.918549 0-11.97983 5.938719-17.918549 17.918549-17.918549 44.745176 0 82.732499-15.665931 114.064361-46.997793 31.331862-31.331862 46.997793-69.319185 46.997793-114.064361C670.943158 400.833708 676.881877 394.89499 688.861706 394.89499z"  horiz-adv-x="1026" />

    
    <glyph glyph-name="mailmessage" unicode="&#58891;" d="M830.39763 87.513402 193.5993 87.513402c-37.019125 0-67.029626 29.502941-67.029626 65.8825L126.569674 614.602052c0 36.378535 30.010501 65.88557 67.029626 65.88557l636.798331 0c37.022195 0 67.032696-29.506011 67.032696-65.88557l0-461.207174C897.429303 117.016343 867.419825 87.513402 830.39763 87.513402zM830.39763 647.542278 193.5993 647.542278c-3.679809 0-7.059789-0.981351-10.371208-2.057869l5.214768-5.120624 0 0.050142 299.859415-296.254308c13.087063-12.861936 34.30941-12.861936 47.396473 0l257.536494 254.661004c0.592494 0.848321 0.954745 1.787716 1.719154 2.537799l45.044916 44.280506C836.901765 646.566044 833.804217 647.542278 830.39763 647.542278zM863.915002 614.602052c0 1.811252-0.762363 3.373841-1.049912 5.105275l-43.286875-42.546002c-0.853437-0.845251-1.929955-1.2689-2.905166-1.889023L559.397496 320.871217c-26.177196-25.732058-68.61882-25.732058-94.794993 0L206.733435 575.845353c-0.047072 0.047072-0.109494 0.059352-0.157589 0.103354l-45.285393 44.514843c-0.376577-1.971911-1.206478-3.783163-1.206478-5.861498l0-461.207174c0-18.192338 15.004739-32.942273 33.514301-32.942273l636.798331 0c18.512632 0 33.517371 14.749936 33.517371 32.942273L863.913978 614.602052zM750.512209 208.114131l-82.295308 80.893378c-6.836709 6.718005-6.836709 17.620309 0 24.344454 6.839779 6.714935 17.928325 6.714935 24.765033 0l82.292238-80.890308c6.839779-6.727215 6.839779-17.629519 0-24.347524C768.437463 201.393056 757.348917 201.393056 750.512209 208.114131zM272.215822 207.889003c-6.54609-6.433526-17.154705-6.433526-23.700795 0-6.54609 6.427386-6.54609 16.864086 0 23.297612l78.038354 76.700893c6.54609 6.433526 17.157775 6.433526 23.700795 0 6.54609-6.436596 6.54609-16.861016 0-23.291472L272.215822 207.889003z"  horiz-adv-x="1024" />

    
    <glyph glyph-name="customerservice" unicode="&#59138;" d="M897.846812 396.059664c0 52.299133-21.844517 98.219999-58.920948 124.8321-21.47715 68.006883-63.291488 128.292921-118.481462 171.829484-59.873646 47.234791-131.35977 71.66418-206.737528 71.66418-0.020466 0-0.040932 0-0.061398 0-75.377758 0-146.863882-24.429389-206.737528-71.66418-55.190997-43.536562-97.004311-104.251366-118.481462-172.258249-37.07643-26.612101-58.920948-72.319096-58.920948-124.618229 0-86.646406 57.907874-149.46615 136.555096-149.46615 29.186739 0 53.757345 23.811312 53.757345 52.996005L319.817979 492.578927c0 13.502525-5.991458 25.892717-14.808264 35.238572 41.089837 81.662905 120.757295 133.393079 208.771861 133.502573 88.647993-0.109494 165.552523-51.839669 206.64236-133.502573-8.81783-9.345856-16.865109-21.735024-16.865109-35.238572l0-193.204303c0-29.184693 26.559912-52.889581 55.746652-52.889581 4.333702 0 9.67536 0.223081 13.877055 0.598634-10.740622-38.446637-27.999704-68.230987-46.103014-90.030479-13.760398-16.561188-27.598568-28.565593-38.544875-36.224016-5.476735-3.832282-9.600659-4.073782-12.801561-5.631254-1.604544-0.777713-2.78237 0.409322-3.315512 0.409322l-51.752688 0c-9.94142 28.652574-41.570791 47.892777-79.353302 47.892777-45.729507 0-82.803891-31.961946-82.803891-70.069869s37.074384-66.335824 82.803891-66.335824c37.781488 0 69.411883 20.974707 79.353302 52.697199l54.339606 0c9.330506 0 11.701506-0.719384 17.250896 1.972934 5.550413 2.692319 12.068873 4.779863 18.974144 9.613962 13.81975 9.662057 30.491455 22.950711 46.579875 42.323944 24.431435 29.41903 47.400566 70.480214 58.161654 124.372635C865.376283 279.839709 897.846812 331.078697 897.846812 396.059664z"  horiz-adv-x="1024" />

    
    <glyph glyph-name="icleftcircleo" unicode="&#58929;" d="M339.2 435.2l268.8 217.6c25.6 19.2 70.4 19.2 89.6-12.8l0 0c19.2-25.6 19.2-70.4-12.8-89.6L480 384l204.8-166.4c25.6-19.2 32-64 12.8-89.6l0 0c-19.2-25.6-64-32-89.6-12.8L339.2 332.8C307.2 358.4 307.2 409.6 339.2 435.2zM512 768c211.2 0 384-172.8 384-384s-172.8-384-384-384-384 172.8-384 384S300.8 768 512 768M512 832C262.4 832 64 633.6 64 384c0-249.6 198.4-448 448-448s448 198.4 448 448C960 633.6 761.6 832 512 832L512 832z"  horiz-adv-x="1024" />

    
    <glyph glyph-name="icdoubleleft" unicode="&#58946;" d="M518.4-6.399999999999977L115.2 332.79999999999995c-32 25.6-32 70.4 0 96l396.8 339.2C544 800 582.4 793.6 608 768l0 0c25.6-25.6 19.2-70.4-6.4-89.6L256 384l345.6-294.4c25.6-25.6 32-64 6.4-89.6l0 0C582.4-25.600000000000023 544-32 518.4-6.399999999999977zM819.2-6.399999999999977L422.4 332.79999999999995c-32 25.6-32 70.4 0 96l396.8 339.2c25.6 25.6 70.4 19.2 89.6-6.4l0 0c25.6-25.6 19.2-70.4-6.4-89.6L563.2 384l345.6-294.4c25.6-25.6 32-64 6.4-89.6l0 0C889.6-25.600000000000023 851.2-32 819.2-6.399999999999977z"  horiz-adv-x="1024" />

    
    <glyph glyph-name="arrowsdown" unicode="&#58926;" d="M511.035534-61.726597l305.264519 428.92391L612.790032 367.197312 612.790032 833.718515 409.278989 833.718515l0-466.522226L205.768969 367.196289 511.035534-61.726597z"  horiz-adv-x="1024" />

    
    <glyph glyph-name="service" unicode="&#58952;" d="M516.080945 125.456572c4.373611 0 8.823969 0.26913 13.299911 0.797156 42.959418 5.15951 79.437214 35.18536 92.89983 76.561723 1.016143 3.093455-0.452301 6.408967-3.413749 7.770987-2.931772 1.36509-6.477528 0.183172-8.132214-2.591011-0.158612-0.264013-17.226337-27.832905-83.670631-36.806277-9.945513-1.335415-19.623943-2.035356-28.79686-2.035356-46.552246 0.029676-67.298755 17.575284-67.48602 17.736966-2.342348 2.082428-5.916756 2.137687-8.320503 0.107447-2.423189-2.02717-2.981914-5.555529-1.330298-8.252964C441.396989 145.890974 477.759151 125.456572 516.080945 125.456572L516.080945 125.456572 516.080945 125.456572zM516.080945 125.456572M873.350908 537.244196c-0.588401 0-1.122567-0.106424-1.677199-0.106424C832.742025 705.688583 683.97991 831.418123 505.626849 831.418123c-183.260837 0-335.435679-132.675742-369.160781-308.199361-32.794917-5.901407-57.757448-34.723849-57.757448-69.585845l0-139.514497c0-39.102576 31.357172-70.809719 70.074985-70.809719 21.839401 0 41.116443 10.31288 53.93847 26.151613 30.985712-81.954547 94.065376-148.032498 173.894516-182.89347 0.191358 0.414439 1.701758 3.354398 3.51915 5.696746 1.25969 1.62194 2.667759 2.952238 3.874237 2.952238 1.255597 0 2.4017-0.452301 3.384074-1.147126-18.475793 13.755282-85.210707 84.463694-99.666954 183.135994-6.345522 43.433208 26.185382 86.068238 64.071248 93.116771 60.821227 11.329023 121.325229 24.227798 182.146457 35.337833 38.661531 7.054673 65.083298 28.260647 81.242326 63.573921 3.78521 8.256034 9.250688 24.949228 11.758812 49.018414 0.666172 3.579525 3.601015 6.328126 7.361665 6.328126 2.509147 0 4.64274-1.280156 6.054903-3.128247l1.677199 1.045819c23.970948-34.80469 71.513754-111.865787 78.341253-193.124486 7.837502-92.903923 3.463891-156.532079-67.64361-221.62868-0.084934-0.080841-0.192382-0.183172-0.294712-0.26913-0.989537-1.063215-1.573845-2.453888-1.573845-3.977591 0-2.001587 1.066285-3.711532 2.611477-4.752234 0.584308-0.243547 1.172709-0.563842 1.762133-0.806365 0.476861-0.107447 0.934279-0.260943 1.412163-0.260943 0.481977 0 0.908696 0.154519 1.334391 0.260943 1.01205 0.533143 1.971911 1.151219 2.957355 1.685385 71.91489 39.617299 127.081327 105.776092 152.571884 185.354522 10.321066-15.331173 26.477025-26.365484 45.246507-30.214139C828.662103 117.844198 706.543811 32.152537 555.252083 19.142222c-9.067516 22.491247-31.383778 38.46608-57.595766 38.46608-34.233686 0-61.993936-27.117614-61.993936-60.530608 0-33.414017 27.756157-60.496839 61.993936-60.496839 27.598568 0 50.717102 17.732873 58.738799 42.092677C731.526809-7.08614 871.91214 97.009683 901.216559 258.746298c25.892717 10.821463 44.073798 36.222993 44.073798 65.87329L945.290357 465.785701C945.290357 505.242342 913.079748 537.244196 873.350908 537.244196L873.350908 537.244196 873.350908 537.244196zM808.744471 496.695688c-45.677319 123.727952-164.03803 212.117049-303.275211 212.117049-138.65799 0-256.591983-87.639013-302.691927-210.568786-2.296299 2.807952-4.983501 5.210675-7.624654 7.637957 26.100448 149.802818 155.021679 263.700891 310.473147 263.700891 154.705478 0 283.225573-112.778576 310.183552-261.536598C813.143665 504.466676 810.689776 500.728538 808.744471 496.695688L808.744471 496.695688 808.744471 496.695688zM808.744471 496.695688M376.629893 86.567867l-0.01228 0C376.591007 86.504422 376.591007 86.495212 376.629893 86.567867L376.629893 86.567867 376.629893 86.567867zM376.629893 86.567867"  horiz-adv-x="1024" />

    
    <glyph glyph-name="buyecsstorage" unicode="&#58988;" d="M204.8 499.2 307.2 439.466667 409.6 384 512 328.533333 614.4 384 716.8 439.466667 819.2 499.2 921.6 554.666667 1024 610.133333 512 896 0 610.133333 102.4 554.666667ZM819.2 384 716.8 328.533333 512 213.333333 307.2 328.533333 204.8 384 102.4 439.466667 0 384 102.4 328.533333 204.8 268.8 512 98.133333 819.2 268.8 921.6 328.533333 1024 384 921.6 439.466667ZM512-12.8 102.4 213.333333 0 157.866667 512-128 1024 157.866667 921.6 213.333333Z"  horiz-adv-x="1024" />

    
    <glyph glyph-name="name" unicode="&#58888;" d="M643.749038 368.199038C712.503846 412.639424 758.127884 490.748076 758.127884 579.690384 758.127884 718.022115 647.791346 830.154808 511.686538 830.154808 375.591346 830.154808 265.254808 718.022115 265.254808 579.690384 265.254808 490.749038 310.878846 412.640384 379.63077 368.2 223.504808 310.48173 111.238462 153.40577 111.238462-30.84423 111.238462-48.15 125.035577-62.152884 142.042308-62.152884 159.055769-62.152884 172.852885-48.149038 172.852885-30.84423 172.852885 167.672116 324.857692 329.195192 511.6875 329.195192 698.528846 329.195192 850.53077 167.671154 850.53077-30.84423 850.53077-48.15 864.327884-62.152884 881.34423-62.152884 898.348076-62.152884 912.145192-48.149038 912.145192-30.84423 912.145192 153.404808 799.878846 310.479808 643.749038 368.199038L643.749038 368.199038ZM511.6875 391.813462C409.622116 391.813462 326.870192 475.914424 326.870192 579.658654 326.870192 683.40673 409.622116 767.503846 511.6875 767.503846 613.765384 767.503846 696.514424 683.40577 696.514424 579.658654 696.514424 475.914424 613.765384 391.813462 511.6875 391.813462L511.6875 391.813462Z"  horiz-adv-x="1024" />

    
    <glyph glyph-name="reduce" unicode="&#58931;" d="M863.74455 351.99914 163.424056 351.99914c-17.664722 0-32.00086 14.336138-32.00086 32.00086s14.336138 32.00086 32.00086 32.00086l700.320495 0c17.695686 0 31.99914-14.336138 31.99914-32.00086S881.440237 351.99914 863.74455 351.99914z"  horiz-adv-x="1024" />

    
    <glyph glyph-name="iconfonticonsuggest" unicode="&#58897;" d="M905.567677 481.486869c-1.163636 11.119192-10.60202 19.781818-22.109091 19.781818-11.507071 0-20.816162-8.662626-22.109091-19.781818l-0.129293 0L861.220202 95.676768c0-35.426263-28.832323-64.258586-64.258586-64.258586L226.391919 31.418182c-35.426263 0-64.258586 28.832323-64.258586 64.258586L162.133333 670.90101c0 35.426263 28.832323 64.258586 64.258586 64.258586l383.094949 0 0 0c12.024242 0.387879 21.591919 10.084848 21.591919 22.238384s-9.567677 21.850505-21.591919 22.238384l0 0L226.391919 779.636364C166.4 779.636364 117.656566 730.892929 117.656566 670.90101L117.656566 95.676768c0-59.991919 48.743434-108.735354 108.735354-108.735354l570.569697 0c59.991919 0 108.735354 48.743434 108.735354 108.735354L905.69697 481.486869 905.567677 481.486869 905.567677 481.486869zM905.567677 481.486869M332.929293 248.630303l-0.129293-0.387879c-1.810101-7.757576-3.361616-22.109091 6.593939-32.064646 6.206061-6.206061 14.092929-7.886869 21.074747-7.886869 4.266667 0 8.145455 0.646465 11.119192 1.292929l121.406061 32.064646 386.973737 386.973737c13.575758 13.575758 20.945455 31.547475 20.945455 50.682828 0 19.135354-7.49899 37.107071-20.945455 50.682828l-26.763636 26.763636c-27.927273 27.927273-73.438384 27.927273-101.365657 0L364.864646 369.648485 332.929293 248.630303 332.929293 248.630303zM400.549495 333.187879l55.983838-55.983838-75.248485-19.264646L400.549495 333.187879 400.549495 333.187879zM427.313131 369.260606l302.416162 302.416162 65.163636-65.163636L492.476768 304.09697 427.313131 369.260606 427.313131 369.260606zM821.785859 725.333333l26.763636-26.763636c10.60202-10.60202 10.60202-27.79798 0-38.4l-22.109091-22.109091-65.163636 65.163636 22.109091 22.109091C793.858586 735.935354 811.183838 735.935354 821.785859 725.333333L821.785859 725.333333zM821.785859 725.333333"  horiz-adv-x="1024" />

    
    <glyph glyph-name="icondate01" unicode="&#58905;" d="M704-128c176.704 0 320 143.296 320 320 0 71.872-24 137.984-64 191.424L960 896l-128 0 0-64-128 0L704 896 256 896l0-64L128 832 128 896 0 896l0-1024L704-128zM64-64L64 640l832 0 0-192.448C842.496 487.808 776.128 512 704 512c-21.888 0-43.328-2.24-64-6.4L640 512 512 512l0-64.448C468.16 414.592 433.024 370.81600000000003 410.816 320l0 0L320 320l0-128 64 0c0-21.952 2.24-43.328 6.4-64L320 128l0-128 128 0 0 0.576C466.368-23.936000000000035 488.064-45.63199999999995 512.576-64L64-64zM704-64c-141.184 0-256 114.816-256 256s114.816 256 256 256 256-114.816 256-256S845.184-64 704-64M832 160c0-17.664-14.336-32-32-32l-128 0c-17.664 0-32 14.336-32 32l0 192C640 369.664 654.336 384 672 384S704 369.664 704 352L704 192l96 0C817.664 192 832 177.664 832 160M128 128l128 0 0-128L128 0 128 128zM448 384L320 384 320 512l128 0L448 384zM128 320l128 0 0-128L128 192 128 320z"  horiz-adv-x="1024" />

    
    <glyph glyph-name="home" unicode="&#58910;" d="M450.909239 10.444591 450.909239 263.590736 497.32675 263.590736 497.32675-12.568694C497.32675-50.698295 466.155867-81.634614 427.687452-81.634614L288.460982-81.634614C249.992568-81.634614 218.821685-50.698295 218.821685-12.568694L218.821685 378.683227 265.239196 378.683227 265.239196 332.656656 265.239196 286.630084 265.239196 10.444591C265.239196-14.992517 286.03716-35.608043 311.656707-35.608043L404.491728-35.608043C430.111275-35.608043 450.909239-14.992517 450.909239 10.444591ZM938.254009-81.634614 799.001476-81.634614C760.559124-81.634614 729.388241-50.698295 729.388241-12.568694L729.388241 217.459913 775.805752 217.459913 775.805752 10.444591C775.805752-14.992517 796.577653-35.608043 822.223263-35.608043L915.058285-35.608043C940.677832-35.608043 961.475795-14.992517 961.475795 10.444591L961.475795 286.630084 961.475795 332.656656 961.475795 378.683227 1007.893306 378.683227 1007.893306-12.568694C1007.893306-50.698295 976.722423-81.634614 938.254009-81.634614ZM729.388241-35.842606 729.388241-35.608043 729.388241 240.57745C729.388241 266.014558 708.61634 286.630084 682.97073 286.630084L543.744261 286.630084C518.098651 286.630084 497.32675 266.014558 497.32675 240.57745L497.32675-35.608043 497.32675-35.842606 450.909239-35.842606 450.909239 263.590736C450.909239 301.746399 482.080122 332.656656 520.522474 332.656656L706.192517 332.656656C744.634869 332.656656 775.805752 301.746399 775.805752 263.590736L775.805752-35.842606 729.388241-35.842606ZM1122.516671 424.709799 628.604123 812.469331C612.679868 828.523899 586.825757 828.523899 570.901502 812.469331L76.988954 424.709799 0.026063 424.709799 561.284398 880.284245C582.525426 901.681649 616.980199 901.681649 638.221227 880.284245L1199.479562 424.709799 1122.516671 424.709799ZM1007.789056 698.810283 1007.789056 809.576381C1007.789056 823.962942 996.139068 835.638992 981.726444 835.638992L871.768287 835.638992 871.768287 890.2141 1010.238941 890.2141C1039.038127 890.2141 1062.364164 866.862001 1062.364164 838.088878L1062.364164 698.810283 1007.789056 698.810283Z"  horiz-adv-x="1200" />

    
    <glyph glyph-name="set" unicode="&#58908;" d="M937.06199 274.311987 1024 274.311987 1024 493.75 937.062001 493.75C848.873994 493.75 827.874007 544.687959 890.062039 606.938045L951.623997 668.500003 796.435978 823.625968 734.935972 762.125962C672.623933 699.813923 621.623921 720.937917 621.809981 809.001917 621.809981 809.251875 621.684029 809.37793 621.684029 809.563888L621.684029 896 402.344 896 402.344 808.75C402.094042 720.874007 351.282035 699.874019 289.061952 762.124003L227.529997 823.62401 72.406016 668.499968 133.906022 606.93801C196.188058 544.688026 175.062016 493.749965 87.030067 493.749965L0 493.749965 0 274.311967 87.032 274.311967C175.064051 274.311967 196.188045 223.374008 133.907955 161.06197L72.407949 99.561964 227.533914-55.626056 289.065869 5.935903C351.283904 68.123935 402.097856 47.123948 402.347917-40.690094L402.347917-128 621.691919-128 621.691919-41.561999C621.691919-41.373993 621.817866-41.185987 621.817866-41.000028 621.629865 47.061924 672.629878 68.126013 734.943862 5.937981L796.443868-55.623977 951.631882 99.564042 890.069924 161.064049C827.876045 223.374029 848.876032 274.311987 937.06199 274.311987L937.06199 274.311987ZM512 192C405.967974 192 320 278.000026 320 384 320 489.999974 405.967974 576 512 576 617.999974 576 704 489.999974 704 384 704 278.000026 617.999974 192 512 192L512 192Z"  horiz-adv-x="1024" />

    
    <glyph glyph-name="text" unicode="&#58948;" d="M860.532975 111.97553700000003c62.138222 77.849042 96.280834 175.0969 96.280834 274.704502 0 243.844657-199.539592 442.140932-444.805622 442.140932-245.2691 0-444.824041-198.296275-444.824041-442.140932 0-243.718791 199.554942-442.077487 444.824041-442.077487 69.771063 0 136.51007 15.601326 198.481494 46.370097 12.597923-0.426719 44.13622-13.759375 67.212798-23.50739 34.31248-14.556531 66.739007-28.287253 90.538039-28.287253 11.966543 0 21.943778 3.339048 29.652344 9.836019 24.856108 21.118993 8.04421 57.83522-15.246239 108.681258C875.151927 74.00064399999997 863.197664 100.14714000000004 860.532975 111.97553700000003zM798.546202 16.01499799999999c-35.156708 14.895245-65.512063 27.737738-88.591711 27.737738-8.04421 0-15.230889-1.594311-21.391193-4.660136-55.017034-27.674293-114.428146-41.713031-176.553065-41.713031-215.997426 0-391.724683 174.670182-391.724683 389.301494 0 214.726479 175.727257 389.395638 391.724683 389.395638 215.981053 0 391.706263-174.670182 391.706263-389.395638 0-89.768513-31.535227-177.425945-88.711438-246.691495-18.269086-22.160719-3.342118-54.769394 19.307741-104.145965 5.241374-11.524474 12.704346-27.765367 17.622356-40.577161C836.671521-0.13891399999999976 816.121486 8.56737499999997 798.546202 16.01499799999999zM299.702849 464.868819c-39.076994 0-70.781066-31.691793-70.781066-70.768787 0-39.048341 31.704073-70.800509 70.781066-70.800509 39.080064 0 70.753437 31.751145 70.753437 70.800509C370.456287 433.176003 338.782913 464.868819 299.702849 464.868819zM522.109242 464.868819c-39.063691 0-70.768787-31.691793-70.768787-70.768787 0-39.048341 31.704073-70.800509 70.768787-70.800509 39.076994 0 70.765717 31.751145 70.765717 70.800509C592.873935 433.176003 561.185212 464.868819 522.109242 464.868819zM744.526891 464.868819c-39.092343 0-70.768787-31.691793-70.768787-70.768787 0-39.048341 31.676443-70.800509 70.768787-70.800509 39.060621 0 70.737064 31.751145 70.737064 70.800509C815.263955 433.176003 783.588535 464.868819 744.526891 464.868819z"  horiz-adv-x="1024" />

    
    <glyph glyph-name="search" unicode="&#58899;" d="M662.635 435.437q0 87.1-61.912 149.013t-149.013 61.912-149.013-61.912-61.912-149.013 61.912-149.013 149.013-61.912 149.013 61.912 61.912 149.013zM903.69 43.722q0-24.482-17.891-42.373t-42.373-17.891q-25.424 0-42.373 17.891l-161.488 161.017q-84.276-58.381-187.853-58.381-67.326 0-128.768 26.13t-105.933 70.622-70.622 105.933-26.13 128.768 26.13 128.768 70.622 105.933 105.933 70.622 128.768 26.13 128.767-26.13 105.933-70.622 70.622-105.933 26.13-128.768q0-103.578-58.381-187.853l161.488-161.488q17.421-17.421 17.421-42.373z"  horiz-adv-x="1024" />

    
    <glyph glyph-name="Iconfont_persons" unicode="&#58895;" d="M434.303486 60.492169l22.943222 71.919753c-9.809845-4.788712-20.197162-8.613947-31.033964-11.423489l-7.685283-1.992481v34.098453l4.269602 1.366887c21.259955 6.808837 37.059529 16.611516 46.961524 29.133633l1.845041 2.332411h59.097637l-27.818964-125.435167h-68.578815zM497.952293 66.635481h-55.240661l25.070856 78.589342c-13.133377-8.121458-27.4647-14.23303-43.111715-18.289664v21.675653c22.560289 7.224535 39.189211 17.619019 49.907242 31.173212h48.468684l-25.094406-113.148543zM551.123682 60.492169l22.928888 71.932039c-9.798583-4.783592-20.169517-8.611899-30.983794-11.433727l-7.694498-2.007839v34.108692l4.267554 1.368934c21.230262 6.805766 37.006287 16.60742 46.886781 29.128514l1.845041 2.33753h59.074088l-27.768794-125.435167h-68.555266zM614.745868 66.635481h-55.216087l25.049354 78.589342c-13.15795-8.121458-27.513846-14.23303-43.061545-18.289664v21.675653c22.534692 7.224535 39.136993 17.619019 49.833523 31.173212h48.44411l-25.049355-113.148543zM314.742349 17.933351h439.837586v-12.286623H314.742349zM314.742349 11.79004h439.837586M520.746028 269.667845l82.500584 86.972915-5.145023 77.100613 20.474634 26.19713 3.738206 55.687075 27.063337 21.917289 13.280816 34.012447-2.376438 3.925576 10.509159 6.364471 5.518742-9.111555-16.669877-42.691923-25.424096-20.591357-3.632745-54.103125-19.907403-25.473243 5.189051-77.785592-86.203977-90.875966zM654.508455 533.793399l-26.244229-21.254835-3.684963-54.894588-20.191018-25.835699 5.166525-77.44259-84.352793-88.92444 0.001024-0.001024 84.352793 88.92444-5.166526 77.442591 20.191019 25.835698 3.684963 54.894588 26.244229 21.254835 14.975347 38.351673-3.947078 6.519078h-0.001024l3.947078-6.518054zM408.60294 578.903739l-12.279456-0.437199-3.749468 105.255411 12.279456 0.437199zM398.716304 683.915465l3.755611-105.252339-3.755611 105.252339zM537.069832 753.188475l8.55661 17.166461 15.696162 3.944007-13.256243-26.59235zM549.843825 765.062473l-7.299278-14.639512h-0.001024l7.298255 14.640536zM655.580463 683.685091l-3.706465-105.255411-12.279457 0.433103 3.706465 105.254388zM414.010079 509.455645l-25.385189 20.605692-15.452477 37.757819 11.37127 4.653559 14.262723-34.849985 27.105316-22.001248 3.863119-57.565904-12.258979-0.823204zM393.715648 533.842546l-14.8576 36.302878 14.8576-36.303902 26.244228-21.302958 3.684964-54.894588-3.68394 54.894588zM285.653767-9.067528v51.929415H161.72883V219.832275l56.226663 56.090486 199.191771 82.986929 4.465163 66.083607-19.215255 24.555841-3.441279 52.099381-23.280081 18.781129-20.509447 50.551266 14.404019 29.387557h10.360696l-3.202714 90.656854 63.097957 81.068169h63.937543l89.227511 30.751371-15.367495-30.751371h30.674581l63.073383-81.069193-3.204761-90.65583h9.677764l15.67978-26.194059-20.94767-53.67002-23.410114-18.856897-3.415681-52.094261-19.193754-24.558913 4.418065-65.862448 208.950421-83.147679 50.14888-64.844706v-166.423344H767.006831l0.166894-53.782649H285.653767z m452.328987 27.813844V162.912442h27.813845v-90.39474H862.316221V208.720047l-38.456109 43.666662-187.932104 75.01803-110.064601-115.860816-114.730446 114.730446-177.250932-73.853872-44.431503-43.947206V70.674708h96.206312v92.23671h27.789272v-144.166125h424.536644zM525.085254 274.244613l78.161358 82.396147-5.142976 77.100613 20.473611 26.19713 3.738206 55.686051 27.06436 21.918313 13.280817 34.012447-0.583615 0.9645H639.365191l3.853904 109.384741-48.511686 62.398643h-62.065881l5.026253 10.082199-29.262642-10.082199H453.468572l-48.533189-62.398643 3.903051-109.384741h-21.968483l-1.279857-2.604764 13.216312-32.293344 27.103268-22.000224 3.737182-55.681955 20.477706-26.200202-5.375398-79.1791 80.33609-80.315612z"  horiz-adv-x="1024" />

    
    <glyph glyph-name="wenjianbao" unicode="&#58957;" d="M891.447806 638.828675H732.917593v63.790104c0 36.755435-29.796087 66.550498-66.550498 66.550498H358.169421c-36.755435 0-66.550498-29.796087-66.550498-66.550498v-63.790104H129.674053c-36.755435 0-66.550498-29.796087-66.550499-66.550498V68.522501c0-36.755435 29.796087-66.550498 66.550499-66.550498h761.773753c36.755435 0 66.550498 29.796087 66.550498 66.550498V572.277153c0.001024 36.755435-29.795063 66.551522-66.550498 66.551522z m-553.392612 63.790104c0 11.090726 9.022477 20.113203 20.113203 20.113203h308.197674c11.090726 0 20.113203-9.022477 20.113203-20.113203v-63.790104H338.055194v63.790104zM109.560849 572.277153c0 11.090726 9.022477 20.113203 20.113204 20.113203h761.773753c11.090726 0 20.113203-9.022477 20.113203-20.113203v-163.12541H598.113875c-2.235142 34.709713-31.079015 62.174412-66.353912 62.174412h-38.984434c-35.273873 0-64.118771-27.4647-66.353912-62.174412H109.560849v163.12541z m442.271362-167.459517V313.617099c0-11.0682-9.004048-20.072248-20.072248-20.072248h-38.984434c-11.0682 0-20.072248 9.004048-20.072248 20.072248V404.817636c0 1.489753 0.175084 2.937527 0.484298 4.335131 1.988385 8.988689 10.009503 15.737117 19.58795 15.737117h38.984434c9.578447 0 17.598541-6.748428 19.58795-15.737117 0.309213-1.398627 0.484298-2.845377 0.484298-4.335131z m339.615595-356.408338H129.674053c-11.090726 0-20.113203 9.022477-20.113204 20.113203v294.192971h316.705137v-49.098373c0-36.731886 29.777657-66.509543 66.509543-66.509543h38.984434c36.731886 0 66.509543 29.777657 66.509543 66.509543v49.098373h313.291503v-294.192971c0-11.089702-9.022477-20.113203-20.113203-20.113203z"  horiz-adv-x="1024" />

    
    <glyph glyph-name="triangle-down" unicode="&#58889;" d="M128 575.999l383.744-383.744 383.744 383.744h-767.488z"  horiz-adv-x="1024" />

    
    <glyph glyph-name="triangle-up" unicode="&#58904;" d="M511.744 576.001l-383.744-383.744h767.488l-383.744 383.744z"  horiz-adv-x="1024" />

    
    </font>
</defs>
</svg>
